<?xml version="1.0" encoding="UTF-8" standalone="no"?>
<svg
   xmlns:dc="http://purl.org/dc/elements/1.1/"
   xmlns:cc="http://creativecommons.org/ns#"
   xmlns:rdf="http://www.w3.org/1999/02/22-rdf-syntax-ns#"
   xmlns:svg="http://www.w3.org/2000/svg"
   xmlns="http://www.w3.org/2000/svg"
   xmlns:sodipodi="http://sodipodi.sourceforge.net/DTD/sodipodi-0.dtd"
   xmlns:inkscape="http://www.inkscape.org/namespaces/inkscape"
   version="1.1"
   width="348.02325"
   height="118.656"
   id="logo"
   xml:space="preserve"
   inkscape:version="0.48.4 r9939"
   sodipodi:docname="gandi.svg"><metadata
     id="metadata8"><rdf:RDF><cc:Work
         rdf:about=""><dc:format>image/svg+xml</dc:format><dc:type
           rdf:resource="http://purl.org/dc/dcmitype/StillImage" /></cc:Work></rdf:RDF></metadata><defs
     id="defs6" /><sodipodi:namedview
     pagecolor="#ffffff"
     bordercolor="#666666"
     borderopacity="1"
     objecttolerance="10"
     gridtolerance="10"
     guidetolerance="10"
     inkscape:pageopacity="0"
     inkscape:pageshadow="2"
     inkscape:window-width="1024"
     inkscape:window-height="742"
     id="namedview4"
     showgrid="false"
     inkscape:zoom="1.0276923"
     inkscape:cx="273.22996"
     inkscape:cy="-2.0882818"
     inkscape:window-x="1366"
     inkscape:window-y="0"
     inkscape:window-maximized="1"
     inkscape:current-layer="logo"
     fit-margin-top="0"
     fit-margin-left="0"
     fit-margin-right="0"
     fit-margin-bottom="0" /><g
     transform="translate(-3.35125,-26.327689)"
     style="font-size:40px;font-style:normal;font-variant:normal;font-weight:normal;font-stretch:normal;line-height:125%;letter-spacing:0px;word-spacing:0px;fill:#444444;fill-opacity:1;stroke:none;font-family:Sequence BRK;-inkscape-font-specification:Sequence BRK"
     id="flowRoot2982"><path
       d="m 11.84725,51.671689 c 2.399985,9.3e-5 4.415983,0.816093 6.048,2.448 1.63198,1.632089 2.447979,3.648087 2.448,6.048 l 0,25.344 c -2.1e-5,3.936056 0.863978,7.248052 2.592,9.936 2.879973,4.704041 7.679968,7.056041 14.4,7.056001 l 25.344,0 c 3.743933,4e-5 7.055929,-0.86396 9.936,-2.592001 4.703922,-2.879952 7.055919,-7.631947 7.056,-14.256 l 0,-25.488 c -8.1e-5,-2.303913 0.815919,-4.271911 2.448,-5.904 1.727915,-1.727908 3.743913,-2.591907 6.048,-2.592 2.303909,9.3e-5 4.271907,0.816093 5.904,2.448 1.631903,1.632089 2.447903,3.648087 2.448,6.048 l 0,25.488 c -9.7e-5,11.328048 -3.936094,20.064041 -11.808,26.208001 -6.432079,5.08803 -13.776072,7.63202 -22.032,7.632 l -25.344,0 c -11.424027,2e-5 -20.208018,-3.93597 -26.352,-11.808 -5.0880069,-6.52796 -7.6320043,-13.87195 -7.632,-22.032001 l 0,-25.488 c -4.3e-6,-2.303913 0.8159949,-4.271911 2.448,-5.904 1.7279915,-1.727908 3.7439895,-2.591907 6.048,-2.592 m 38.16,93.312001 c -2.400049,0 -4.416047,-0.816 -6.048,-2.448 -1.632043,-1.632 -2.448042,-3.64799 -2.448,-6.048 -4.2e-5,-2.39999 0.815957,-4.41599 2.448,-6.048 1.631953,-1.63198 3.647951,-2.44798 6.048,-2.448 2.303947,2e-5 4.271945,0.86402 5.904,2.592 1.727941,1.63201 2.591941,3.60001 2.592,5.904 -5.9e-5,2.30401 -0.864059,4.32 -2.592,6.048 -1.632055,1.632 -3.600053,2.448 -5.904,2.448 m -21.168,-59.328001 c -3e-5,-2.399938 0.815969,-4.415936 2.448,-6.048 1.631966,-1.631933 3.647964,-2.447932 6.048,-2.448 l 25.344,0 c 2.399934,6.8e-5 4.415932,0.816067 6.048,2.448 1.631929,1.632064 2.447928,3.648062 2.448,6.048 -7.2e-5,2.304057 -0.864071,4.320055 -2.592,6.048 -1.632068,1.632052 -3.600066,2.448051 -5.904,2.448 l -25.344,0 c -2.400036,5.1e-5 -4.416034,-0.815948 -6.048,-2.448 -1.632031,-1.631945 -2.44803,-3.647943 -2.448,-6.048"
       style="font-size:144px;fill:#444444;font-family:Sequence BRK;-inkscape-font-specification:Sequence BRK"
       id="path2986" /><path
       d="m 198.33175,60.167689 c -1e-4,2.400082 -0.8161,4.41608 -2.448,6.048 -1.63209,1.632077 -3.60009,2.448076 -5.904,2.448 l -25.488,0 c -4.22406,7.6e-5 -8.49606,0.624076 -12.816,1.872 -8.06404,2.208072 -14.54404,5.952069 -19.44,11.232 -6.72002,7.296056 -10.08002,17.040046 -10.08,29.232001 -2e-5,3.93603 0.86398,7.24803 2.592,9.936 2.87997,4.70402 7.67997,7.05602 14.4,7.056 l 25.344,0 c 3.83993,2e-5 7.15193,-0.86398 9.936,-2.592 4.70392,-2.87998 7.05592,-7.67997 7.056,-14.4 l 0,-25.344001 c -8e-5,-2.399938 0.81592,-4.415936 2.448,-6.048 1.63192,-1.631933 3.64791,-2.447932 6.048,-2.448 2.30391,6.8e-5 4.27191,0.816067 5.904,2.448 1.6319,1.632064 2.4479,3.648062 2.448,6.048 l 0,25.344001 c -1e-4,11.42402 -3.93609,20.20801 -11.808,26.352 -6.43208,5.088 -13.77607,7.632 -22.032,7.632 l -25.344,0 c -11.42403,0 -20.20802,-3.936 -26.352,-11.808 -5.08801,-6.52798 -7.632,-13.91998 -7.632,-22.176 0,-14.399953 3.59999,-26.447941 10.8,-36.144001 5.95198,-7.967922 13.96797,-14.015916 24.048,-18.144 8.35195,-3.359908 16.51194,-5.039907 24.48,-5.04 l 25.488,0 c 2.30391,9.3e-5 4.27191,0.816093 5.904,2.448 1.6319,1.632089 2.4479,3.648087 2.448,6.048 m -25.344,25.488 c -7e-5,2.304057 -0.86407,4.320055 -2.592,6.048 -1.63207,1.632052 -3.60007,2.448051 -5.904,2.448 -3.74406,5.1e-5 -7.05606,0.86405 -9.936,2.592 -4.70405,2.880045 -7.05605,7.632041 -7.056,14.256001 -5e-5,2.40003 -0.81605,4.41603 -2.448,6.048 -1.63204,1.63203 -3.60004,2.44802 -5.904,2.448 -2.40004,2e-5 -4.41603,-0.81597 -6.048,-2.448 -1.63203,-1.63197 -2.44803,-3.64797 -2.448,-6.048 -3e-5,-11.327956 3.93597,-20.063947 11.808,-26.208001 6.52795,-5.087935 13.87194,-7.631932 22.032,-7.632 2.39993,6.8e-5 4.41593,0.816067 6.048,2.448 1.63193,1.632064 2.44793,3.648062 2.448,6.048 m -8.496,33.840001 c -2.30406,2e-5 -4.32006,-0.81597 -6.048,-2.448 -1.63206,-1.72797 -2.44806,-3.74397 -2.448,-6.048 -6e-5,-2.30396 0.81594,-4.27196 2.448,-5.904 1.72794,-1.72796 3.74394,-2.59196 6.048,-2.592 2.39993,4e-5 4.41593,0.81604 6.048,2.448 1.63193,1.63204 2.44793,3.64804 2.448,6.048 -7e-5,2.40003 -0.81607,4.41603 -2.448,6.048 -1.63207,1.63203 -3.64807,2.44802 -6.048,2.448"
       style="font-size:144px;fill:#444444;font-family:Sequence BRK;-inkscape-font-specification:Sequence BRK"
       id="path2988" /><path
       d="m 215.47225,144.98369 c -2.30401,0 -4.32001,-0.816 -6.048,-2.448 -1.63201,-1.728 -2.448,-3.74399 -2.448,-6.048 l 0,-50.832001 c 0,-8.159932 2.54399,-15.503925 7.632,-22.032 6.33598,-7.967911 15.11997,-11.951907 26.352,-11.952 8.44795,9.3e-5 16.55995,1.632092 24.336,4.896 10.07993,4.128084 18.09592,10.176078 24.048,18.144 7.19991,9.696061 10.7999,21.792049 10.8,36.288001 l 0,25.488 c -10e-5,2.20801 -0.8161,4.176 -2.448,5.904 -1.63209,1.728 -3.60009,2.592 -5.904,2.592 -2.40009,0 -4.41608,-0.816 -6.048,-2.448 -1.63208,-1.632 -2.44808,-3.64799 -2.448,-6.048 l 0,-25.488 c -8e-5,-13.535953 -4.08008,-23.951943 -12.24,-31.248001 -8.25606,-7.391927 -18.28805,-11.087924 -30.096,-11.088 -6.62403,7.6e-5 -11.37603,2.352074 -14.256,7.056 -1.82402,2.976066 -2.73602,6.288063 -2.736,9.936 l 0,50.832001 c -2e-5,2.30401 -0.86402,4.32 -2.592,6.048 -1.63202,1.632 -3.60002,2.448 -5.904,2.448 m 25.488,-50.832001 c -2.40004,5.1e-5 -4.41603,-0.815948 -6.048,-2.448 -1.63203,-1.631945 -2.44803,-3.647943 -2.448,-6.048 -3e-5,-2.399938 0.81597,-4.415936 2.448,-6.048 1.63197,-1.631933 3.64796,-2.447932 6.048,-2.448 8.06395,6.8e-5 15.35995,2.544065 21.888,7.632 7.96793,6.336054 11.95193,15.072045 11.952,26.208001 l 0,25.488 c -7e-5,2.30401 -0.86407,4.32 -2.592,6.048 -1.63207,1.632 -3.60007,2.448 -5.904,2.448 -2.30406,0 -4.32006,-0.816 -6.048,-2.448 -1.63206,-1.728 -2.44806,-3.74399 -2.448,-6.048 l 0,-25.488 c -6e-5,-6.62396 -2.30405,-11.327956 -6.912,-14.112001 -2.97605,-1.82395 -6.33604,-2.735949 -10.08,-2.736 l 0.144,0 0,0 m 0,25.344001 c -2.40004,2e-5 -4.41603,-0.81597 -6.048,-2.448 -1.63203,-1.63197 -2.44803,-3.64797 -2.448,-6.048 -3e-5,-2.30396 0.81597,-4.27196 2.448,-5.904 1.72797,-1.72796 3.74396,-2.59196 6.048,-2.592 2.30396,4e-5 4.27196,0.81604 5.904,2.448 1.63195,1.63204 2.44795,3.64804 2.448,6.048 -5e-5,2.40003 -0.81605,4.41603 -2.448,6.048 -1.63204,1.63203 -3.60004,2.44802 -5.904,2.448"
       style="font-size:144px;fill:#444444;font-family:Sequence BRK;-inkscape-font-specification:Sequence BRK"
       id="path2990" /><path
       d="m 317.28475,144.98369 c -2.30401,0 -4.32001,-0.816 -6.048,-2.448 -1.63201,-1.728 -2.448,-3.74399 -2.448,-6.048 l 0,-101.664001 c 0,-2.399887 0.81599,-4.415885 2.448,-6.048 1.63199,-1.631882 3.64799,-2.447881 6.048,-2.448 2.39998,1.19e-4 4.41598,0.816118 6.048,2.448 1.63198,1.632115 2.44798,3.648113 2.448,6.048 l 0,101.664001 c -2e-5,2.30401 -0.86402,4.32 -2.592,6.048 -1.63202,1.632 -3.60002,2.448 -5.904,2.448"
       style="font-size:144px;fill:#444444;font-family:Sequence BRK;-inkscape-font-specification:Sequence BRK"
       id="path2992" /><path
       d="m 342.8785,144.98369 c -2.30401,0 -4.32001,-0.816 -6.048,-2.448 -1.63201,-1.728 -2.448,-3.74399 -2.448,-6.048 l 0,-76.320001 c 0,-2.303913 0.81599,-4.271911 2.448,-5.904 1.72799,-1.727908 3.74399,-2.591907 6.048,-2.592 2.39998,9.3e-5 4.41598,0.816093 6.048,2.448 1.63198,1.632089 2.44798,3.648087 2.448,6.048 l 0,76.320001 c -2e-5,2.30401 -0.86402,4.32 -2.592,6.048 -1.63202,1.632 -3.60002,2.448 -5.904,2.448 m 0,-101.664001 c -2.30401,1.02e-4 -4.32001,-0.815897 -6.048,-2.448 -1.63201,-1.727894 -2.448,-3.743892 -2.448,-6.048 0,-2.399887 0.81599,-4.415885 2.448,-6.048 1.63199,-1.631882 3.64799,-2.447881 6.048,-2.448 2.39998,1.19e-4 4.41598,0.816118 6.048,2.448 1.63198,1.632115 2.44798,3.648113 2.448,6.048 -2e-5,2.304108 -0.86402,4.320106 -2.592,6.048 -1.63202,1.632103 -3.60002,2.448102 -5.904,2.448"
       style="font-size:144px;fill:#444444;font-family:Sequence BRK;-inkscape-font-specification:Sequence BRK"
       id="path2994" /></g></svg>