<?xml version="1.0" encoding="UTF-8" standalone="no"?>
<svg
   xmlns:dc="http://purl.org/dc/elements/1.1/"
   xmlns:cc="http://creativecommons.org/ns#"
   xmlns:rdf="http://www.w3.org/1999/02/22-rdf-syntax-ns#"
   xmlns:svg="http://www.w3.org/2000/svg"
   xmlns="http://www.w3.org/2000/svg"
   xmlns:sodipodi="http://sodipodi.sourceforge.net/DTD/sodipodi-0.dtd"
   xmlns:inkscape="http://www.inkscape.org/namespaces/inkscape"
   version="1.1"
   width="614.95081"
   height="182.23151"
   viewBox="0 0 614.95081 182.23151"
   preserveAspectRatio="xMidYMid meet"
   id="logo"
   xml:space="preserve"
   inkscape:version="0.48.4 r9939"
   sodipodi:docname="gandi.svg"><metadata
     id="metadata8"><rdf:RDF><cc:Work
         rdf:about=""><dc:format>image/svg+xml</dc:format><dc:type
           rdf:resource="http://purl.org/dc/dcmitype/StillImage" /></cc:Work></rdf:RDF></metadata><defs
     id="defs6" /><sodipodi:namedview
     pagecolor="#ffffff"
     bordercolor="#666666"
     borderopacity="1"
     objecttolerance="10"
     gridtolerance="10"
     guidetolerance="10"
     inkscape:pageopacity="0"
     inkscape:pageshadow="2"
     inkscape:window-width="1312"
     inkscape:window-height="742"
     id="namedview4"
     showgrid="false"
     inkscape:zoom="0.51384615"
     inkscape:cx="-34.066519"
     inkscape:cy="91.115747"
     inkscape:window-x="54"
     inkscape:window-y="0"
     inkscape:window-maximized="1"
     inkscape:current-layer="logo"
     fit-margin-top="0"
     fit-margin-left="0"
     fit-margin-right="0"
     fit-margin-bottom="0" /><path
     id="gandi"
     d="m 185.72622,97.556832 c -8.96534,0 -10.7007,-6.503493 -10.7007,-16.912087 0,-12.723392 4.91496,-17.639341 11.13297,-17.639341 6.9389,0 10.55202,4.484048 10.55202,15.035194 0,12.576968 -3.32577,19.516234 -10.98429,19.516234 z m -5.78574,28.191358 c 0.86704,0.14406 1.7366,0.28897 2.74731,0.28897 12.7234,0.86668 16.48145,2.74609 16.48145,9.25495 0,5.0565 -4.48143,11.12709 -14.74609,11.12709 -9.8299,0 -12.1437,-3.61199 -12.1437,-8.23696 0,-4.62797 3.4707,-9.39899 7.66103,-12.43405 z m 13.88028,-70.259508 c -2.45872,-0.723374 -5.34972,-1.15565 -7.22875,-1.15565 -14.16639,0 -23.99878,7.949622 -23.99878,27.178388 0,9.25107 2.17137,17.204432 8.81917,21.54006 -4.19157,3.46844 -8.9641,9.3975 -9.10777,13.1548 -0.14492,3.75642 3.1796,6.36056 8.67425,7.95299 -6.0731,4.04528 -10.84187,9.8289 -10.84187,16.76617 0,7.52096 3.7593,16.48269 23.27416,16.48269 19.22626,0 27.61191,-11.2779 27.61191,-23.70994 0,-11.41832 -8.67299,-15.61301 -17.92569,-16.9106 -10.84187,-1.44899 -18.21679,-1.88089 -18.21679,-4.33861 0,-2.02534 1.88028,-4.48306 3.75805,-6.50688 1.88152,0.4334 4.04914,0.57782 6.50912,0.57782 16.76878,0 23.41909,-9.976188 23.41909,-25.29735 0,-7.22962 -2.17012,-12.723393 -5.64082,-16.336768 2.0252,0.436273 3.75929,0.722749 5.34972,0.722749 2.45872,0 4.04665,-1.447498 4.04665,-4.625972 0,-2.603648 -0.57595,-4.481923 -1.15441,-5.493897 l -17.34724,0 z M 108.13264,42.153108 c -5.12134,-3.625617 -12.209914,-2.412498 -15.834034,2.707344 -4.44881,6.290483 -9.37451,10.953061 -14.979096,14.173389 -0.516731,0.296721 -1.041459,0.581323 -1.570435,0.855057 -0.487497,0.252743 -0.982364,0.494368 -1.48023,0.724748 -5.233034,2.42549 -11.061631,3.698704 -17.799257,3.900723 C 49.730838,64.31235 43.899366,63.038136 38.664335,60.612646 31.769916,57.417555 25.871729,52.265356 20.630201,44.860452 17.006583,39.74061 9.9175525,38.527491 4.7986365,42.153108 c -5.12088002,3.621869 -6.335097,10.710687 -2.710518,15.831528 7.487811,10.581382 16.5812255,18.401071 27.0269255,23.240308 2.051685,0.951256 4.144848,1.787197 6.290234,2.509446 -8.872393,6.406923 -18.465535,15.387002 -23.060761,27.69798 -4.7704725,12.77612 -4.7104415,26.60832 0.165926,38.95103 4.67867,11.84097 13.338797,21.47128 24.386809,27.11922 12.308483,6.29312 27.976597,6.30678 41.91036,0.0312 14.622784,-6.58154 24.160218,-18.63238 25.516008,-32.24207 1.42313,-14.32456 -5.444924,-27.07968 -17.500664,-32.49388 -12.486647,-5.60795 -26.572707,-1.60504 -35.883246,10.19447 -3.887106,4.92369 -3.044794,12.06748 1.8784,15.95309 4.925191,3.8876 12.067982,3.04429 15.95359,-1.8794 2.766687,-3.50543 5.955906,-4.79826 8.748456,-3.54404 2.380138,1.06933 4.731918,4.13411 4.19707,9.52393 -0.532973,5.3356 -5.220039,10.61699 -12.233396,13.77498 -7.589309,3.41334 -16.114757,3.58801 -22.248196,0.45339 -6.121821,-3.13063 -10.950939,-8.54295 -13.596939,-15.23909 -1.987343,-5.02627 -3.602254,-13.0421 -0.01121,-22.65723 2.692851,-7.21201 9.480827,-14.01711 21.363405,-21.410268 5.043756,-3.14049 10.453072,-6.06709 15.68273,-8.897246 6.031119,-3.26443 11.747274,-6.358448 16.767166,-9.672227 8.93336,-4.885588 16.790654,-12.074229 23.400974,-21.413632 3.62461,-5.12084 2.41087,-12.209659 -2.7091,-15.831528 z M 252.4778,118.81042 c -1.29808,1.44263 -4.91494,2.3133 -7.80594,2.3133 -5.63708,0 -9.25146,-0.58032 -9.25146,-13.01474 0,-12.720898 4.91245,-14.741848 10.69946,-14.741848 2.02145,0 4.91369,0.28748 6.79396,1.30158 0,10.407218 -0.43602,24.141708 -0.43602,24.141708 z m -2.59989,-64.477388 c -13.44427,0 -23.133,1.879025 -25.30062,3.470073 -1.01197,0.724624 -1.30057,2.16775 -1.30057,3.759298 0,1.0116 0.14492,5.058875 1.58917,7.517473 4.48392,-2.026197 13.87779,-3.327274 20.38442,-3.327274 4.48017,0 7.66351,1.73685 7.66351,8.530697 l 0,12.14157 c -2.89224,-1.441627 -7.37367,-1.8779 -10.98804,-1.8779 -9.25145,0 -18.79274,3.613372 -18.79274,23.709921 0,21.97298 10.1185,22.84253 20.67051,22.69523 9.39762,0 16.1916,-2.31518 20.09706,-4.77003 0,0 0.86831,-20.52833 0.86831,-45.829693 l 0,-8.384271 c 0,-13.00937 -5.4934,-17.635094 -14.89101,-17.635094 z M 50.39112,20.769214 c 1.454369,-1.455494 3.389365,-2.257578 5.445422,-2.257578 2.058556,0 3.993551,0.802084 5.447421,2.256328 1.455244,1.456743 2.257077,3.38949 2.257077,5.447171 0,2.058931 -0.801833,3.992927 -2.256077,5.445922 -1.45487,1.456744 -3.389865,2.257577 -5.448421,2.257577 -2.056057,0 -3.991053,-0.800833 -5.445422,-2.255078 -1.454745,-1.455494 -2.256579,-3.38949 -2.256579,-5.448421 0,-2.057681 0.801834,-3.990428 2.256579,-5.445921 z m 5.445422,31.662306 c 7.002738,0 13.587693,-2.727333 18.538747,-7.679761 4.950054,-4.94993 7.677138,-11.531512 7.677138,-18.536624 0,-7.002613 -2.727084,-13.585444 -7.678638,-18.5378732 C 69.424235,2.7273338 62.83928,0 55.836542,0 48.835802,0 42.251847,2.7273338 37.300294,7.6797618 32.348741,12.629691 29.622156,19.212522 29.622156,26.215135 c 0,7.002614 2.726585,13.586694 7.678637,18.536624 4.950554,4.952428 11.535009,7.679761 18.535749,7.679761 z M 440.56137,113.4597 c -5.20354,0 -8.09454,3.90373 -8.09454,8.38477 0,5.05937 2.02395,8.24285 8.09454,8.24285 5.05737,0 8.09955,-3.7578 8.09955,-8.24285 0,-5.05688 -2.17013,-8.38477 -8.09955,-8.38477 z m 48.54104,-59.126668 c -7.80345,0 -18.21429,2.167624 -23.85636,4.770648 l 0,69.67957 c 12.00252,0 11.71517,0 11.71517,-2.45373 l 0,-58.985493 c 3.17835,-2.021952 7.65727,-2.746575 10.84062,-2.746575 7.66101,0 8.52807,4.335125 8.52807,15.754945 l 0,48.430853 c 12.28611,0 12.14369,0 12.14369,-2.45373 l 0,-45.396425 c 0,-19.950516 -1.88277,-26.600063 -19.37119,-26.600063 z M 409.8036,22.961824 c -4.6251,0 -6.6503,3.470698 -6.6503,8.674246 -0.14492,6.793971 2.17137,8.961596 5.92692,9.10777 4.33525,0 6.50662,-3.469448 6.65029,-9.39637 0,-6.071847 -1.4455,-8.385646 -5.92691,-8.385646 z m -84.78972,57.971271 c 0,-19.950516 -1.88027,-26.600063 -19.36994,-26.600063 -7.8072,0 -18.21679,2.167624 -23.85387,4.770648 l 0,69.67957 c 12.00127,0 11.71018,0 11.71018,-2.45373 l 0,-58.985493 c 3.17835,-2.021952 7.66102,-2.746575 10.84312,-2.746575 7.66227,0 8.52932,4.335125 8.52932,15.754945 l 0,48.430853 c 12.28736,0 12.14119,0 12.14119,-2.45373 l 0,-45.396425 z m 230.40784,7.371173 c -5.05738,1.446997 -14.02272,1.733974 -19.65854,1.591048 0.86455,-20.095064 6.21552,-25.297864 12.14244,-25.297864 6.21552,0 8.09455,4.335125 8.23697,14.744719 0,2.748074 -0.14242,6.360947 -0.72087,8.962097 z m 12.14494,-10.26367 c 0,-15.466595 -6.21677,-23.707566 -18.36421,-23.707566 -12.86457,0 -25.58547,4.482173 -25.58547,42.06915 0,29.490068 9.68748,34.549938 23.13299,34.549938 10.84187,0 19.94465,-3.47182 19.94465,-5.49227 0,-3.17998 -0.28361,-8.24085 -1.00823,-10.40923 -4.9162,2.7447 -10.7007,4.48255 -17.63835,4.48255 -7.80719,0 -11.85259,-2.60402 -12.28486,-20.094938 6.9339,0 20.23699,-0.29047 30.21305,-2.3148 1.1569,-5.20379 1.59043,-12.576463 1.59043,-19.082834 z M 372.83404,118.2321 c -2.31505,1.58904 -5.35222,2.16687 -8.53306,2.16687 -6.79272,0 -10.83688,-3.17997 -10.83688,-26.453508 0,-23.71131 6.35795,-29.34801 12.7184,-29.34801 3.03093,0 4.77003,0.432275 6.65154,1.878902 l 0,51.755746 z m 0,-90.352829 0,29.34601 c -2.45996,-1.736599 -5.78324,-2.892249 -10.26716,-2.892249 -12.4298,0 -22.26469,12.288246 -22.26469,40.9125 0,31.371468 9.83489,35.706588 23.56402,35.706588 8.96783,0 15.76056,-1.44563 20.67426,-4.33512 l 0,-104.08995 c -9.54255,0 -11.70643,0 -11.70643,5.352221 z m 30.46544,33.970982 0,66.932997 c 11.85508,0 11.99876,0 11.99876,-2.45373 l 0,-69.828864 c -9.54129,0 -11.99876,0 -11.99876,5.349597 z M 605.40326,120.9773 c -5.1998,0 -5.1998,-5.20293 -5.1998,-11.42033 l 0,-42.935692 12.43105,0 c 2.31629,0 2.31629,-1.012727 2.31629,-10.120622 l -14.74734,0 0,-26.020236 c -9.54129,0 -11.70642,0 -11.70642,4.049148 l 0,21.971088 -7.37742,0 c -2.45747,0 -2.59989,1.157524 -2.59989,10.120622 l 9.97731,0 0,41.635612 c 0,13.01076 0,22.84253 13.72912,22.84253 5.63832,0 12.43355,-1.15953 12.43355,-4.62985 0,-2.89012 -0.43353,-6.0706 -0.8708,-7.65915 -3.03343,1.30058 -4.3365,2.16688 -8.38565,2.16688"
     style="fill:#444444;fill-opacity:1;fill-rule:nonzero;stroke:none"
     inkscape:connector-curvature="0" /></svg>