<?xml version="1.0" standalone="no"?>
<!DOCTYPE svg PUBLIC "-//W3C//DTD SVG 1.1//EN" "http://www.w3.org/Graphics/SVG/1.1/DTD/svg11.dtd" >
<svg xmlns="http://www.w3.org/2000/svg">
<metadata></metadata>
<defs>
<font id="CommercialScriptRegular" horiz-adv-x="964" >
<font-face units-per-em="2048" ascent="1638" descent="-410" />
<missing-glyph horiz-adv-x="401" />
<glyph horiz-adv-x="0" />
<glyph horiz-adv-x="2048" />
<glyph unicode="&#xd;" horiz-adv-x="393" />
<glyph unicode=" "  horiz-adv-x="401" />
<glyph unicode="&#x09;" horiz-adv-x="401" />
<glyph unicode="&#xa0;" horiz-adv-x="401" />
<glyph unicode="!" horiz-adv-x="655" d="M82 113.5q0 56.5 49 106.5t103.5 50t81 -31.5t26.5 -84.5t-48.5 -107.5t-102.5 -54.5t-81.5 32.5t-27.5 89zM365 442q158 256 233 521q12 45 31 108q53 164 166 164q41 0 68.5 -27.5t27.5 -71t-31 -89.5t-121 -146q-178 -199 -346 -475z" />
<glyph unicode="&#x22;" horiz-adv-x="681" d="M82 897q68 125 117 293q61 211 163 205q53 -2 54 -47q0 -80 -111 -203q-74 -82 -194 -258zM307 897q68 125 117 293q61 211 164 205q53 -2 53 -47q0 -80 -111 -203q-74 -82 -194 -258z" />
<glyph unicode="#" horiz-adv-x="1062" d="M133 -31l178 332l-157 -2l51 88l153 -2l156 285h-158l43 82l156 -2l184 337h58l-189 -337h211l180 335l52 -2l-174 -333h157l-49 -82l-158 2l-143 -281h150l-50 -94h-149l-184 -330h-52l176 330h-208l-177 -326h-57zM416 385l207 2l151 283l-205 -2z" />
<glyph unicode="$" horiz-adv-x="1040" d="M-70 -358l213 391q-115 74 -114 194q0 68 35.5 120t101.5 52q86 0 86 -92q0 -49 -45 -82q-18 -12 -86 -43l-12 -28q14 -53 57 -86l231 419q-90 106 -90 207q0 147 119 237.5t272 94.5l121 221l49 -4l-120 -219q51 -8 98 -29l135 248l53 -4l-149 -268q90 -72 90 -168 q0 -55 -32 -98t-85 -43q-68 0 -67 83q0 43 43 81t51 57q-8 31 -23 49l-207 -369q119 -119 119 -241q0 -158 -139 -254.5t-301 -85.5l-191 -344h-51l193 346q-47 6 -101 26l-204 -368h-50zM205 45q43 -20 100 -22l201 358q-27 27 -76 72zM354 18q248 8 248 199q0 63 -63 131z M473 807q0 -49 43 -109l160 289q-86 -8 -144.5 -54t-58.5 -126zM547 666q29 -25 76 -72l202 367q-45 22 -98 28z" />
<glyph unicode="%" horiz-adv-x="925" d="M139 659q0 106 101.5 223t203.5 117t103 -125q0 -92 -99 -239.5t-188 -147.5q-59 0 -94 58q-27 51 -27 114zM184 -10l570 1024l75 10l-569 -1024zM225 559q0 -37 35 -37q80 0 156 151.5t76 244.5q-1 47 -50 47q-61 0 -139 -164t-78 -242zM475 162q0 109 101.5 223.5 t207.5 114.5q47 0 74 -37t27 -86q-1 -93 -100 -241.5t-187 -147.5q-61 0 -92 53t-31 121zM561 57q0 -35 31 -34q86 0 162 148t75 249q0 45 -45 45q-68 0 -145.5 -163t-77.5 -245z" />
<glyph unicode="&#x26;" horiz-adv-x="1318" d="M29 240q0 162 151 301q123 113 301 174q104 37 275 78q119 178 266 285t219 107.5t78 -73.5q8 -63 -35 -135q-84 -137 -319 -207q-33 -53 -123 -272t-88 -342q143 123 282 409q20 41 44 79t63 38q55 2 61 -61q4 -31 -13 -60t-45 -30t-42 14.5t-23 15.5q-2 -2 -18 -33 q-125 -223 -211 -325q-31 -37 -94 -90q33 -96 94 -97q86 2 174 152l29 -18q-92 -164 -197 -164q-152 -4 -201 75q-135 -88 -268 -88q-68 -2 -154.5 15.5t-121.5 48.5q-84 80 -84 203zM246 169q0 -95 44 -129t99 -34q98 0 240 100q-55 94 -55.5 201t81.5 283q8 31 66 141 q-90 -28 -179 -103t-140.5 -125.5t-103.5 -144.5t-52 -189zM985 815q199 68 270 207q29 55 25 93t-33 38q-82 -2 -262 -338z" />
<glyph unicode="'" horiz-adv-x="393" d="M106 897q51 131 74 291q29 213 133 207q59 -2 60 -60q0 -81 -71.5 -176.5t-164.5 -271.5z" />
<glyph unicode="(" horiz-adv-x="573" d="M12 -236q4 168 23 263q135 770 667 1212q223 184 510 371l23 -29q-288 -190 -573 -524q-137 -160 -222 -289q-381 -575 -395 -1010z" />
<glyph unicode=")" horiz-adv-x="571" d="M-217 -217q289 190 575 526q137 162 222 289q381 575 395 1012l33 -11q-5 -166 -23 -260q-135 -774 -670 -1214q-223 -184 -505 -367z" />
<glyph unicode="*" horiz-adv-x="1032" d="M115 885q0 16 10 39q33 68 170 95.5t186 37.5q-33 20 -128 51t-95 78t45 85q108 92 173 -53q38 -85 61 -112l10 20q18 43 22 119t19 105q45 98 135 92q59 -2 59 -62q0 -39 -64 -122t-118 -152q80 51 177.5 112.5t131.5 59.5q59 -2 60 -57q0 -100 -164 -131t-203 -41 q31 -18 128 -49t97 -82q0 -45 -43 -81t-88 -32q-47 2 -87 85t-62 111l-10 -22q-18 -45 -24.5 -121t-20.5 -108.5t-53.5 -61.5t-78.5 -24q-57 2 -57 61q0 39 63.5 123t116.5 151q-78 -51 -175 -113.5t-134 -58.5q-59 2 -59 58z" />
<glyph unicode="+" horiz-adv-x="1007" d="M119 432v131h334v334h131v-334h334v-131h-334v-334h-131v334h-334z" />
<glyph unicode="," horiz-adv-x="528" d="M-182 -305q147 74 202 117q111 84 111 176l-22 118q0 59 36.5 106.5t89 47.5t83 -31.5t30.5 -76.5q0 -129 -198 -289q-144 -117 -318 -201z" />
<glyph unicode="-" horiz-adv-x="655" d="M102 385l23 70h438l-24 -68z" />
<glyph unicode="." horiz-adv-x="528" d="M109 101q0 52 38.5 97.5t90 45.5t82 -35t30.5 -87t-38 -97t-90 -45t-82.5 34.5t-30.5 86.5z" />
<glyph unicode="/" horiz-adv-x="1054" d="M12 -66l983 1491l54 -39l-981 -1472z" />
<glyph unicode="0" horiz-adv-x="911" d="M-41 340q8 268 266.5 485.5t450.5 208.5q92 -2 138 -88t42 -186q-2 -137 -123 -329.5t-246 -311.5q-160 -152 -285.5 -147t-191.5 130q-57 104 -51 238zM106 92q-2 -84 99 -88q129 -4 266 166q102 127 193 328q94 219 99 359t-97 144q-119 4 -258 -215 q-57 -92 -177 -345.5t-125 -348.5z" />
<glyph unicode="1" horiz-adv-x="718" d="M-10 330q164 111 406.5 319.5t410.5 370.5l27 -19q-97 -295 -402 -911q-12 -29 -45 -90q-94 2 -285 0q47 76 217.5 314.5t403.5 578.5q-340 -332 -715 -592z" />
<glyph unicode="2" horiz-adv-x="884" d="M-76 8q61 137 139 205q20 18 261 184q135 94 228 223t93 271q0 92 -80 92q-113 0 -235.5 -122t-122.5 -234q0 -51 41 -52q53 0 111.5 67.5t91.5 135.5l30 -14q-37 -78 -102.5 -149.5t-132.5 -71.5q-74 0 -74 84q0 141 144.5 270t287.5 129q106 0 177 -68.5t71 -175.5 q0 -147 -158 -266q-90 -68 -318 -172t-294 -162q-16 -14 -39 -41q111 86 231 86q66 0 180 -48l113 -48q51 0 127 127l31 -18q-137 -244 -319 -244q-68 0 -158 66.5t-123 66.5q-88 0 -168 -133z" />
<glyph unicode="3" horiz-adv-x="927" d="M-16 233q0 57 31.5 99.5t79.5 42.5t76 -25.5t28 -66.5q0 -66 -74 -99q-61 -29 -62 -49q0 -39 51.5 -65.5t96.5 -26.5q98 0 206.5 148.5t108.5 254.5q0 20 -15 45t-34 21q-72 -20 -92 -20q-41 0 -41 34q0 43 49 43q25 0 90 -20q61 14 107.5 51t103 142.5t56.5 172.5 q0 82 -101.5 82t-208.5 -72.5t-106 -168.5q0 -70 65 -70q100 0 154 176l31 -6q-61 -205 -183 -205q-102 0 -102 109t116 190.5t226 81.5t189 -60t79 -161q0 -217 -360 -283q176 -63 176 -190q0 -152 -140 -249t-280.5 -97t-230.5 62.5t-90 178.5z" />
<glyph unicode="4" horiz-adv-x="980" d="M12 309q0 31 46 54.5t85 27.5q264 340 398 678l293 23q-287 -414 -625 -695q16 2 29 2q84 0 213 -67q233 326 534 563q-176 -213 -356 -598q25 -4 39 -4q63 0 135 78l22 -23q-72 -90 -168 -90q-16 0 -45 4q-55 -129 -98 -256q-143 -6 -278 -16q86 147 194 313 q-123 63 -221 64q-33 0 -84 -40t-82 -40t-31 22z" />
<glyph unicode="5" horiz-adv-x="927" d="M25 209q0 125 106 125q96 0 96 -92q0 -53 -55 -83t-55 -48q0 -35 48 -55.5t89 -20.5q111 0 215 167t104 290q0 86 -127 86q-63 0 -167 -43q-37 -68 -61 -68t-23.5 27.5t55.5 64.5q88 152 248 465q145 -49 255 -49t226 53q-98 -221 -334 -221q-82 0 -199 37l-143 -262 q78 31 156 30q123 0 213 -71.5t90 -190.5q0 -164 -156 -266q-135 -90 -307 -90q-109 0 -186 53q-88 57 -88 162z" />
<glyph unicode="6" horiz-adv-x="919" d="M12 281q0 244 236.5 491.5t478.5 247.5q82 0 142.5 -53.5t60.5 -135.5q0 -51 -29 -87.5t-72 -36.5t-70.5 26.5t-27.5 65.5t42 76.5t42 54.5q0 55 -88 55q-207 0 -432 -510q115 102 210 102.5t155.5 -54t60.5 -138.5q0 -158 -143.5 -276t-305.5 -117q-121 0 -190.5 83 t-69.5 206zM160 102q0 -33 27.5 -53t62.5 -20q100 0 200.5 162t100.5 268q0 33 -21.5 56.5t-54.5 23.5q-111 0 -213 -159t-102 -278z" />
<glyph unicode="7" horiz-adv-x="782" d="M6 -92q0 188 502 758q70 78 219 241q-63 -47 -78 -55q-88 -51 -147 -51t-136 33.5t-90 33.5q-55 0 -89 -97t-66 -97q-27 0 -27 28q0 20 46 93t134 254l33 -11l-63 -135q125 109 202 109q39 0 118 -35t110 -35q59 0 168 100l24 -22q-268 -331 -455.5 -682.5t-187.5 -487.5 q0 -33 17 -94q-53 -20 -82 -20q-68 0 -110 51t-42 121z" />
<glyph unicode="8" horiz-adv-x="909" d="M12 233q0 116 123 197q92 61 227 92q-72 100 -71 187q0 135 116 226t255 91q100 0 169.5 -56.5t69.5 -154.5q0 -160 -260 -258q117 -119 117 -233q0 -152 -137 -246q-121 -86 -263.5 -86t-234.5 57q-111 68 -111 184zM135 199q0 -172 205 -172q94 0 172 40.5t78 116.5 t-84 174q-41 45 -121 136q-250 -88 -250 -295zM444 840q0 -69 68 -144l102 -110q195 84 195 284q0 121 -156 121q-82 0 -145.5 -41t-63.5 -110z" />
<glyph unicode="9" horiz-adv-x="970" d="M-16 167.5q0 67.5 27.5 106.5t71.5 39t72.5 -26.5t28.5 -65.5t-43 -80t-43 -53q0 -55 92 -55q131 0 273 205q90 131 160 303q-113 -102 -210.5 -102.5t-155.5 54t-58 142.5q0 156 151 273.5t312 117.5q123 0 186 -88q59 -78 59 -205q0 -291 -307 -551 q-217 -184 -414 -184q-84 0 -143 51t-59 118.5zM369 569q0 -90 69 -90q113 0 216 150.5t104 269.5q0 88 -94 88t-194.5 -164t-100.5 -254z" />
<glyph unicode=":" horiz-adv-x="528" d="M51 109q0 52 39 95.5t90 43.5t82 -34t31 -85t-39 -94t-91 -43t-82 32.5t-30 84.5zM279 611q0 52 38.5 94.5t90 42.5t82 -33t30.5 -85t-39 -94t-91 -42t-81.5 32.5t-29.5 84.5z" />
<glyph unicode=";" horiz-adv-x="528" d="M-233 -293q143 74 200 117q113 84 113 170q0 20 -11.5 58t-11.5 59q0 57 37 102t88 45t83 -29.5t32 -74.5q0 -125 -201 -283q-145 -115 -311 -190zM297 605q0 52 40 95t91 43t82 -33.5t31 -84.5t-39 -93.5t-91 -42.5t-83 32t-31 84z" />
<glyph unicode="&#x3c;" horiz-adv-x="514" d="M14 401q170 131 449 344l26 -36l-411 -318q127 -186 256 -381l-33 -24q-18 10 -287 415z" />
<glyph unicode="=" horiz-adv-x="872" d="M96 223l29 58h643l-25 -58h-647zM137 387l29 57h643l-25 -57h-647z" />
<glyph unicode="&#x3e;" horiz-adv-x="507" d="M14 18l412 320q-76 121 -238 356l-14 19v4l-4 2l31 24q16 -8 288 -417q-215 -168 -448 -342z" />
<glyph unicode="?" horiz-adv-x="903" d="M176 132q0 56 41 103.5t96 47.5t87 -38t32 -92t-40 -101.5t-94 -47.5t-88 36t-34 92zM283 948q0 131 126 239.5t245.5 108.5t200.5 -65.5t81 -169.5q0 -134 -156 -234q-94 -47 -280 -145q-147 -80 -148 -184q0 -80 74 -80q82 0 113 131l32 -6q-31 -160 -143 -160 q-49 0 -80 33t-31 82q0 82 95 184q4 4 159 147q96 88 144 218q23 61 22 112q0 98 -100 98t-209 -99t-109 -206q0 -70 56 -69q66 0 123 94q39 70 61 156l35 -7q-25 -100 -82.5 -190t-136.5 -90q-41 0 -66.5 29.5t-25.5 72.5z" />
<glyph unicode="@" horiz-adv-x="1396" d="M184 527q0 232 180.5 379.5t417.5 148.5q197 0 361 -125t164 -318q0 -147 -118 -255.5t-265 -108.5q-94 0 -95 114q0 20 2 46q-49 -80 -73 -105q-51 -51 -115 -45q-86 4 -146.5 63.5t-60.5 143.5q0 127 102.5 234.5t229.5 107.5q94 0 137 -111l27 80l127 15 q-41 -90 -95 -242t-55 -187q0 -70 45 -69q106 0 185.5 114.5t79.5 204.5q0 170 -140 281q-127 106 -301 106q-217 0 -360.5 -134t-143.5 -350t146.5 -348t363.5 -132q252 0 402 219h63q-74 -133 -201.5 -205t-275.5 -72q-236 0 -412 159t-176 391zM555 455q0 -68 34 -109 t83 -41q43 0 120.5 142.5t77.5 196.5t-28.5 84t-73.5 30q-92 0 -160 -131q-53 -104 -53 -172z" />
<glyph unicode="A" horiz-adv-x="1699" d="M8 207q0 92 46 150.5t124 58.5q39 0 76 -34t37 -73q0 -63 -64 -96q-59 -20 -116 -41q-18 -20 -19 -43q0 -53 56.5 -85t117.5 -32q246 0 492 297q-88 145 -88 255t46 178.5t136 68.5q127 0 217 -131q236 283 401 428q262 233 515 297q-208 -279 -392 -660 q-84 -170 -299 -671q213 27 379 248l31 -19q-96 -125 -194 -189.5t-236 -76.5l-25 -45l-250 4l52 88q-154 61 -271 199q-266 -307 -514 -308q-106 0 -182 70t-76 162zM739 487q0 -70 43 -147q27 29 260 313q-55 58 -123.5 58t-123.5 -76q-56 -77 -56 -148zM803 311 q115 -139 260 -194q47 141 47 277t-47 224q-166 -193 -260 -307zM1087 649q57 -109 58 -264q0 -66 -17 -158q332 535 355 568q209 322 393 542q-213 -94 -430 -299q-148 -137 -359 -389z" />
<glyph unicode="B" horiz-adv-x="1574" d="M-14 256q0 78 45 137t123 60q46 0 82 -31q34 -29 34 -75v-5l-22 -63q-33 -28 -166 -80q-8 -20 -14 -41q0 -60 70 -92q68 -32 139 -31h4q193 0 333 254q92 184 285 551q190 338 479 506q-94 43 -250 43q-283 0 -563 -150q-329 -175 -329 -426q0 -61 32.5 -103t89.5 -42 q156 0 298 192t143 361l30 6q10 -88 11 -125q0 -197 -112 -341.5t-304 -144.5q-94 0 -161 52.5t-66 144.5q0 274 346 457q291 151 590 151h4q145 0 299 -45q63 27 139 47l6 -30q-57 -18 -100 -35q170 -84 170 -240q-1 -207 -351 -375q90 -39 147.5 -116.5t57.5 -173.5 q0 -168 -151.5 -317.5t-317.5 -149.5q-57 0 -96 40t-39 99q0 186 209 305l14 -33q-190 -104 -190 -264q8 -29 43 -72q8 -6 33 -20q104 2 204.5 208t100.5 333q0 78 -66 141q-74 -31 -125 -33l-41 33q29 47 91 47q31 0 75 -12q95 41 159 174q64 134 65 239q0 103 -58 156 q-119 -70 -205 -213q-66 -106 -121 -263.5t-104 -299.5q-98 -268 -223 -393q-172 -170 -463 -170q-131 0 -222 70.5t-91 197.5z" />
<glyph unicode="C" horiz-adv-x="1122" d="M-8 993q0 190 163 303t359 113q59 0 154 -12l-6 -37q-90 14 -132 14q-166 0 -303 -150.5t-137 -314.5t225 -211q137 236 390 453q295 258 516 258q66 0 110.5 -48t44.5 -116q0 -223 -303 -399q-238 -137 -506 -182q-80 -158 -119.5 -263.5t-39.5 -222.5q0 -166 172 -166 q160 0 299 125t139 283q0 55 -31 98t-82 43q-197 0 -258 -366l-31 -5q-10 57 -10 125q0 117 76 202t195 85q74 0 124 -52t52 -128v-14q1 -178 -145 -304q-152 -130 -320.5 -130.5t-274.5 108t-106 257t94 329.5q-309 66 -309 325zM588 700q477 104 672 461q41 74 40 131 q1 82 -81 82q-215 0 -631 -674z" />
<glyph unicode="D" horiz-adv-x="1380" d="M-43 133q0 106 184 107q143 0 332 -84q113 139 304.5 517.5t365.5 540.5q-147 162 -399 162t-442.5 -207t-190.5 -473q0 -174 168 -174q207 0 329 238q95 187 95 397q0 20 -1 41h35q4 -78 4 -90q0 -211 -123 -403q-139 -217 -339 -218q-129 0 -209 93.5t-80 222.5 q0 258 266 442q240 170 498 170t415 -174q100 76 174 107l11 -33q-91 -39 -152 -105q135 -190 135 -458.5t-139 -501.5q-166 -276 -440 -277q-70 0 -254 86q-162 -57 -268.5 -57t-178.5 23q-100 35 -100 108zM-6 131q0 -51 92 -78q63 -18 143 -18t181 65q-211 99 -313.5 99 t-102.5 -68zM592 104q131 -84 186 -84q233 0 391 273q133 233 134 491q0 206 -127 392q-70 -113 -119 -273t-92 -307q-106 -334 -373 -492z" />
<glyph unicode="E" d="M-2 400.5q0 183.5 172 314.5q141 109 350 143q-98 102 -98 225q0 160 139 252t305 92q303 0 303 -253q0 -98 -57 -183q-66 -92 -162 -92q-57 0 -91 45t-34 103q0 121 154 215l20 -21q-118 -103 -118 -225q0 -35 22.5 -58.5t52.5 -23.5q76 0 127 79q52 80 52 166 q-1 84 -53 143q-52 60 -136 60q-137 0 -238 -128t-102 -271q0 -53 23 -113q23 4 47 4q147 0 182 -86l-22 -36q-53 -12 -54 -13q-72 0 -209 74q-164 -59 -263 -218t-99 -339q0 -223 225 -223q168 0 300 115.5t132 279.5q0 53 -30.5 93t-79.5 40q-111 0 -187 -137 q-66 -113 -71 -244l-31 -4q-20 63 -20 111q0 123 80.5 219t203.5 96q76 0 124 -51t48 -127q0 -176 -146.5 -303t-322.5 -127t-307 111.5t-131 295zM653 831q59 -57 105.5 -57t46.5 17q0 45 -113 45q-16 0 -39 -5z" />
<glyph unicode="F" horiz-adv-x="1255" d="M-76 250q0 74 48 136.5t108.5 63t97.5 -32t37 -83.5t-55 -86q-20 -14 -74 -34.5t-61 -31.5q-6 -18 -13 -37q0 -53 66 -83q64 -29 131 -29h4q162 0 293 190q55 82 172 334q-176 -31 -316 -172l-22 25q158 160 354 186q209 428 469 602l21 -24q-82 -66 -146 -261 q-10 -31 -80 -301q47 10 101 25q39 98 55 129q45 78 100 78l35 -15l15 -36q-2 -66 -127 -162q-6 -156 -64 -254q-70 -12 -160 -37q66 98 129 256l-94 -21q-82 -254 -265.5 -418.5t-436.5 -164.5q-127 0 -224 67.5t-98 190.5zM152 809q0 264 274 448q248 168 522 168 q80 0 236.5 -31.5t236.5 -31.5t148 55l24 -16q-123 -189 -266 -189q-92 0 -258 76t-256 76q-213 0 -419 -173t-206 -380q0 -61 37 -110.5t94 -49.5q115 0 226.5 176.5t111.5 305.5q0 49 -20 110l31 10q57 -145 57 -260q0 -154 -110.5 -266.5t-262.5 -112.5q-88 0 -144 53.5 t-56 141.5zM1143 680q84 68 84 99q0 32 -21 32q-41 0 -63 -131z" />
<glyph unicode="G" horiz-adv-x="1140" d="M-29 934q0 184 156 315q131 111 332 160l6 -31q-164 -39 -278.5 -197.5t-114.5 -328.5q0 -106 67.5 -172t173.5 -66q18 0 72 4q-41 84 -41 177q0 244 205 431t450 187q72 0 122 -42t50 -114q0 -209 -249 -419q-218 -185 -449 -244q33 -102 160 -102q225 0 502 268l24 -25 q-86 -90 -133 -226t-92 -263q-55 -129 -152 -191q-121 -75 -340 -75h-6q-135 0 -233 68.5t-99 205.5q0 74 47.5 130t108.5 56t95 -31.5t34 -84.5t-63 -86q-4 -2 -111 -43l-18 -43q31 -123 225 -123q119 0 244 149q37 45 130 189.5t126 185.5q-168 -96 -293 -96t-221 127 q-84 -6 -101 -6q-137 0 -236.5 108.5t-99.5 247.5zM473 629q205 43 429 252.5t224 400.5q0 39 -29.5 64.5t-68.5 25.5q-147 0 -348 -286t-207 -457z" />
<glyph unicode="H" horiz-adv-x="1601" d="M8 231q0 76 44 138q43 61 118 61h2q102 0 121 -106l-31 -78q-29 -18 -83 -35.5t-75 -30.5l-20 -45q0 -59 73 -92t146 -33q154 0 281 176q53 74 168 310q-166 -72 -328 -209l-23 24q172 154 367 228q160 322 328 536q-117 -100 -208.5 -164.5t-174.5 -81.5l-64 25l-24 66 q0 61 57.5 143t65.5 98l-5 10l-14 3q-98 -23 -213 -142q-57 -57 -172 -205l-29 19q276 362 430 364l72 -30l29 -76q0 -53 -43 -121q-6 -12 -74 -106l8 -9q139 63 291.5 189.5t292.5 245.5l18 -25q-113 -117 -190 -311q-18 -43 -117 -346l197 65q133 236 307 434 q244 279 418 279q131 0 131 -146q0 -266 -621 -528q-106 -231 -171.5 -393t-82.5 -295l33 -27q133 2 369 312l28 -19q-256 -328 -403 -328q-84 0 -123 72.5t-39 161.5q0 170 127 432l-182 -63q-86 -260 -267.5 -432t-437.5 -173q-123 0 -215 69t-92 189zM1485 772 q152 63 249 130t192.5 200t94.5 209q1 55 -65 55q-135 0 -285 -233q-76 -119 -186 -361z" />
<glyph unicode="I" horiz-adv-x="1161" d="M8 248q0 76 47 138.5t123 63.5q47 0 82 -32.5t35 -83.5t-37 -78q-20 -16 -77.5 -32.5t-82.5 -35.5l-12 -41q27 -118 206 -118h3q145 0 256 135q55 70 151 262q-121 33 -193.5 119t-72.5 209q0 301 400 499q330 162 671 168l4 -35q-223 -4 -399 -524q-4 -8 -113 -375 q246 104 246 363q0 35 -4 72l33 4q12 -72 12 -99q0 -131 -87 -233t-216 -152q-100 -207 -273 -329.5t-395 -122.5q-123 0 -215 68.5t-92 189.5zM545 629q0 -125 172 -172q205 424 256 510q168 274 389 409q-198 -27 -313 -76q-176 -78 -340 -284.5t-164 -386.5z" />
<glyph unicode="J" horiz-adv-x="1075" d="M-262 -371q0 233 299 418q233 145 512 197q272 500 348 616q242 375 471 504q-309 -27 -606 -236q-334 -233 -334 -507l31 -80q49 -29 87 -29t95 31l12 -31q-61 -35 -110 -35q-90 0 -142 76q-41 68 -41 160q0 352 428 540q324 143 738 154v-35q-261 0 -580 -812 q-69 -177 -123 -314q84 -8 138.5 -61.5t54.5 -137.5q0 -129 -127 -217q-100 -70 -248 -98v35q133 25 225 90q115 80 115 192q0 70 -51 115t-123 47q-145 -266 -375 -498q-289 -291 -518 -291q-80 0 -128 62.5t-48 144.5zM-199 -444q0 -98 117 -99q143 0 352 310 q86 125 258 440q-231 -37 -479 -238.5t-248 -412.5z" />
<glyph unicode="K" horiz-adv-x="1587" d="M8 244q0 78 45 140t123 62q45 0 79 -32.5t34 -86.5t-68 -89q-8 -4 -121 -48l-16 -40q29 -117 227 -117q133 0 250 135q84 100 176 295q61 141 125 280q78 154 234 353q-279 -246 -379 -246q-29 0 -68 24l-24 62q0 59 58.5 141t64.5 97l-21 14q-123 -14 -377 -342l-24 24 q283 356 422 357q37 0 66.5 -28t29.5 -75.5t-53 -127.5t-62 -101l10 -6q102 31 291 194t295 285l27 -25q-117 -137 -203 -376.5t-160 -456.5q-100 -244 -231 -363q-165 -151 -427 -151h-3q-129 0 -224 61.5t-96 186.5zM1096 181q0 75 71.5 222.5t71.5 229.5q0 23 -16 51 q-35 -16 -84 -27l-41 35l24 39q53 14 67 14t54 -18q82 43 162 168q59 104 117 207q84 137 174 207q121 96 297 110v-33q-106 -10 -193 -90q-57 -53 -155 -198.5t-158 -212.5q-98 -115 -213 -180q90 -86 90 -234q0 -72 -18 -203t-21 -162l16 -26q78 6 252 262l29 -18 q-229 -319 -379 -320q-66 0 -106.5 51t-40.5 126z" />
<glyph unicode="L" horiz-adv-x="1265" d="M-2 132q0 68 68 106q51 30 114 30h4q125 0 310 -82q78 143 163 338q-176 4 -288.5 103.5t-112.5 275.5q0 217 223 373q203 143 428 143q53 0 148 -28l-11 -31q-85 24 -139 24h-4q-219 0 -377.5 -171t-158.5 -392q0 -254 268 -254q27 0 41 2q381 848 704 854h11 q159 0 159 -172q0 -170 -227 -393q-190 -186 -383 -280q-57 -156 -126 -259.5t-189 -195.5q152 -78 245 -78q176 0 396 297l28 -18q-109 -145 -192 -213q-125 -102 -256 -103q-92 0 -269 84q-172 -98 -333 -98q-82 0 -152 31q-92 39 -92 107zM33 133q0 -49 66 -76 q64 -26 132 -26h5q158 0 237 121q-176 84 -287 84q-53 0 -103 -27t-50 -76zM950 623q186 98 351 300.5t165 385.5q0 84 -92 84q-158 0 -284 -316q-29 -76 -140 -454z" />
<glyph unicode="M" horiz-adv-x="1990" d="M8 192q0 92 46 160q45 66 121 66h5l80 -29l33 -78l-29 -71q-2 -2 -117 -47q-70 -31 -69 -70q0 -55 62 -84t130 -29q139 0 363 219q158 156 348.5 406t339.5 448q199 242 334 318l41 -35q-55 -152 -270 -598t-279 -711q123 129 254 331t250 388q338 506 616 619l25 -27 q-27 -78 -110 -201.5t-99 -154.5q-109 -197 -254.5 -516.5t-167.5 -454.5l20 -25q92 25 310 306l28 -19q-242 -330 -360 -330q-74 0 -111 80q-28 57 -28 132v5q0 369 694 1139q-147 -96 -301 -277.5t-307.5 -414.5t-292.5 -449q-41 -61 -111 -137t-110 -76q-47 0 -69.5 64.5 t-23.5 122.5q0 231 226 606q109 180 381 549q-121 -92 -320 -348q-143 -195 -325.5 -434.5t-331.5 -378.5q-203 -188 -355 -189q-109 0 -187.5 66t-78.5 159z" />
<glyph unicode="N" horiz-adv-x="1579" d="M-14 188.5q0 94.5 54 160t134 65.5q47 0 82 -33t35 -80q0 -92 -113 -106q-74 -10 -82 -13q-43 -14 -43 -65t60.5 -79t128.5 -28q123 0 234 91.5t317 412.5q143 229 284 461q184 272 361 395q35 23 55 31h4q21 0 21 -21q-2 -2 -5 -10l-28 -90q-33 -102 -39 -131 q-20 -141 -45 -406.5t-37 -367.5q76 141 260 452q233 365 365 365q59 0 59 -52.5t-57 -60.5h1q0 2 -85 2q-92 0 -308 -354q-59 -98 -245 -444l-19 -193q-92 -47 -248 -121q16 199 66 611q55 383 158 567q41 74 108 162q-143 -117 -248 -260q-53 -74 -176 -291l-77 -142 q-135 -233 -240 -366q-223 -287 -438 -287q-109 0 -181.5 65.5t-72.5 160z" />
<glyph unicode="O" horiz-adv-x="1048" d="M14 352q0 219 159 470t397.5 421t459.5 170q80 0 141.5 -49t61.5 -131q0 -45 -35 -121l-33 14q29 63 29 117t-49 93.5t-119 39.5q-190 0 -401 -250q-182 -215 -313.5 -522t-131.5 -489q0 -106 117 -107q164 0 350 199q166 174 286 425t120 408q0 94 -86 95 q-129 0 -291 -242q-232 -351 -277 -705l-32 5q33 312 237 655q193 319 365 319q139 0 139 -186q0 -162 -131 -405.5t-320.5 -423.5t-357.5 -181q-143 0 -221 127q-63 104 -64 254z" />
<glyph unicode="P" horiz-adv-x="1228" d="M-2 227q0 78 48 139.5t110.5 61.5t98.5 -31.5t36 -85t-51 -82.5q-8 -4 -99 -36q-59 -23 -59 -72t66.5 -79t134.5 -30q225 0 422 408q27 61 77 174q-119 -16 -227 -96l-18 26q111 90 262 105q109 236 232.5 401.5t303.5 272.5q-97 67 -263 67h-5q-252 0 -520 -158 q-303 -178 -303 -409q0 -61 33.5 -103.5t91.5 -42.5q160 0 296 192.5t146 373.5h27q12 -72 12 -131q0 -195 -112 -342.5t-302 -147.5q-98 0 -163 51t-64 148q0 252 317 440q279 166 547 166q193 0 309 -78q63 37 152 62l6 -31q-70 -20 -125 -51q147 -115 148 -273 q0 -184 -177 -301q-135 -90 -342 -123q-207 -639 -722 -639q-131 0 -227.5 65t-96.5 189zM1057 651q154 41 249 184.5t95 311.5q0 68 -41 131q-127 -92 -201 -287q-6 -16 -102 -340z" />
<glyph unicode="Q" horiz-adv-x="1222" d="M12 111q0 73 90 120q74 41 180.5 41t313.5 -73q182 174 345 467.5t163 507.5q0 186 -150 186q-238 0 -473 -219t-235 -455q0 -70 39 -116t106 -46q141 0 271.5 218.5t130.5 377.5q0 18 -7 76l33 4q35 -125 35 -229q0 -190 -137 -341t-328 -151q-88 0 -137 62 q-41 57 -41 147q0 252 250 480t504 229q158 0 258 -98.5t100 -256.5q0 -225 -233 -495q-178 -207 -428 -375q211 -76 300.5 -76t249.5 226l31 -19q-240 -332 -467 -332q-96 0 -278 99q-168 -96 -312 -97q-66 0 -120 32t-54 106zM47 100q0 -90 152 -90q115 0 258 80 q-187 109 -289 109q-49 0 -85 -27t-36 -72z" />
<glyph unicode="R" horiz-adv-x="1603" d="M-2 231q0 76 48 136.5t110.5 60.5t97.5 -31.5t35 -86t-49 -83.5q-8 -4 -101 -32q-59 -20 -59 -71.5t73 -82.5t144 -31q160 0 289 176q57 82 172 325t192 374q174 291 455 438q-98 39 -225 39q-295 0 -596 -164q-350 -190 -351 -457q0 -63 34 -103t95 -40q156 0 281 195.5 t141 373.5l31 4q10 -88 10 -139q1 -196 -107 -340q-107 -143 -297 -143h-3q-94 0 -157 51t-63 151q0 102 83 226q129 190 386 304t504 114q133 0 291 -43q76 27 144 47l6 -31q-53 -20 -103 -35q223 -98 224 -272q-1 -254 -437 -381q86 -94 86 -221q0 -70 -36.5 -201 t-36.5 -201q0 -23 14 -22q76 0 279 287l30 -19q-231 -334 -387 -334q-74 0 -118 50.5t-44 123t45.5 172t85.5 185.5q25 61 25 107t-14 61q-49 -4 -68 -4q-53 0 -53 32q0 41 51 41t109 -30q123 39 200.5 159.5t77.5 243.5t-100 193q-158 -78 -252 -285q-27 -57 -123 -361.5 t-264 -476.5q-201 -207 -486 -207q-133 0 -226 64t-93 194z" />
<glyph unicode="S" horiz-adv-x="1263" d="M6 223q0 76 47 140.5t123 64.5q47 0 83 -34t36 -81q0 -84 -109 -112q-51 -14 -63 -21q-31 -18 -31 -53q0 -53 64.5 -83t130.5 -30q168 0 291 172q53 76 161 320q-18 -2 -37 -2q-158 0 -259 112.5t-101 272.5q0 217 223 373q203 143 428 143q61 0 150 -21l-4 -32 q-86 18 -144 18q-221 0 -382 -176q-160 -175 -160 -398q0 -120 68.5 -182.5t187.5 -62.5l47 2q385 852 725 852q72 0 116.5 -52.5t44.5 -123.5q0 -174 -229 -391q-184 -175 -387 -273q-90 -260 -256 -413q-193 -178 -448 -179q-125 0 -220 65t-96 185zM1038 621 q145 70 227 141.5t190 244t108 281.5q0 82 -86 82q-160 0 -293 -307q-57 -129 -146 -442z" />
<glyph unicode="T" horiz-adv-x="1142" d="M-10 252q0 78 47 137t109 59q1 0 1 1q60 0 97 -32t37 -85t-52 -82q-10 -6 -96 -35q-59 -23 -59 -61q0 -57 74 -100.5t135 -43.5q139 0 258 146q72 92 155 272q31 66 84 180q205 412 463 578l19 -29q-82 -72 -138 -231q-36 -134 -73 -267q-117 -395 -377 -559 q-203 -129 -371 -129q-123 0 -218 79t-95 202zM229 815q0 225 260 426q229 178 537 178q80 0 237.5 -32.5t247.5 -32.5t138 53l24 -18q-84 -187 -262 -187q-86 0 -262 80t-272 80q-197 0 -406 -177t-209 -368q0 -63 38 -112.5t97 -49.5q119 0 230.5 175.5t111.5 306.5 q0 23 -12 80l29 10q51 -119 51 -217q0 -162 -104.5 -278t-264.5 -116q-92 0 -150.5 53.5t-58.5 145.5z" />
<glyph unicode="U" horiz-adv-x="1454" d="M-16 674q0 244 252 481q246 236 491 236q154 0 253 -90.5t99 -242t-146.5 -373t-277.5 -411.5q-75 -131 -75 -215q0 -49 45 -49q203 0 573 654q157 285 348 565q109 12 226 16q-176 -281 -423 -706.5t-247 -505.5q0 -14 14 -15q113 0 340 304l27 -19q-236 -326 -385 -326 q-63 0 -94 49q-32 48 -32 114q0 68 34 155q-233 -322 -383 -322q-84 0 -124 76t-40 179.5t63.5 226t185 293.5t158.5 239q76 131 76 215t-74 123q-59 33 -143 33q-231 0 -468 -227.5t-237 -456.5q0 -66 38 -112t102 -46q131 0 262 228.5t131 377.5q0 16 -8 70l33 4 q36 -122 36 -222v-5q0 -188 -121.5 -339t-308.5 -151q-88 0 -144 53.5t-56 141.5z" />
<glyph unicode="V" horiz-adv-x="1116" d="M-25 924q268 362 422 362q98 0 99 -100q0 -51 -39 -115.5t-74 -122.5q0 -4 12 -4q55 0 252 158.5t328 281.5l22 -22q-102 -141 -170 -320q-23 -61 -106 -342q-119 -397 -356 -647q180 106 370 326q98 111 305 389.5t322 394.5q180 186 354 240l4 -33q-168 -53 -336 -227 q-113 -119 -289 -372.5t-231 -321.5q-291 -351 -577 -472l-19 19q37 63 94 197q16 59 39 178q47 272 120 431t237 345q-285 -238 -377 -238q-100 0 -100 97q0 49 42 113t80 122q-2 10 -16 10q-123 0 -385 -348z" />
<glyph unicode="W" horiz-adv-x="1636" d="M-2 713q0 248 248 470t499 222q158 0 259.5 -89t101.5 -245q0 -270 -311 -598q-131 -139 -465 -416q444 264 927 842q109 135 248.5 311t167.5 193q12 2 20.5 -5t6.5 -20q-127 -317 -266.5 -667.5t-214.5 -614.5q178 354 321 555q207 295 449 453l18 -29 q-178 -109 -351 -326t-288 -440q-27 -53 -99.5 -196.5t-92.5 -143.5q-55 0 -80.5 95.5t-26.5 171.5q0 221 180 522q158 236 318 471q-338 -432 -541 -647q-322 -342 -645 -539q-109 -68 -131 -68q-35 0 -33 31q12 25 43 57q285 311 414 512q219 334 219 605q0 186 -180 186 q-223 0 -451.5 -216t-228.5 -437q0 -76 40 -128.5t111 -52.5q133 0 271 232q129 213 129 364q0 27 -6 80l28 6q39 -125 39 -225q0 -193 -121 -345q-120 -151 -307 -150h-2q-100 0 -158.5 59t-58.5 160z" />
<glyph unicode="X" horiz-adv-x="1329" d="M-37 169q0 85 48 142.5t110.5 57.5t97.5 -31t35 -77t-33 -75.5t-72 -29.5t-78.5 35.5t-45.5 39.5q-27 -2 -27 -55q0 -80 64.5 -122t152.5 -42q166 0 354.5 215.5t319.5 498t131 443.5q0 197 -186 197q-221 0 -439.5 -226.5t-218.5 -447.5q0 -68 41 -120t105 -52 q137 0 268 232q123 211 123 366q0 20 -8 86l32 6q37 -143 37 -237q0 -197 -119 -345.5t-311 -148.5q-90 0 -146.5 62.5t-56.5 152.5q0 236 227.5 471.5t462.5 235.5q164 0 262.5 -113t98.5 -278q0 -51 -18 -123q271 448 472 448h1q63 0 111 -35.5t48 -91t-31.5 -90.5 t-73.5 -35t-67.5 26t-25.5 62q0 37 31.5 70t37.5 41q-2 16 -35 16q-137 0 -313 -243q-150 -207 -267.5 -494t-117.5 -414t66 -127q109 0 325 302l27 -19q-227 -319 -350 -319q-105 0 -105 157q0 154 68 330q-158 -207 -338 -336q-221 -160 -430 -160q-96 0 -170 54.5 t-74 139.5z" />
<glyph unicode="Y" horiz-adv-x="1171" d="M6 809q0 203 201 396.5t405 193.5q119 0 205 -70t86 -178t-76 -244q-14 -25 -112.5 -179.5t-98.5 -203.5q0 -20 35 -20q104 0 291 221q119 158 240 317.5t266 284.5l25 -24q-100 -119 -170 -291q-78 -238 -156 -475q-100 -272 -280 -420t-408 -148q-135 0 -236 65 q-100 64 -100 190q0 83 48 141.5t126 58.5q119 0 119 -113q0 -59 -49 -88q-10 -6 -99 -37q-59 -20 -59 -68t75 -79t144 -31q119 0 210 79t372 671q-215 -289 -371 -289q-66 0 -108 56t-42 139t74 219q68 111 139.5 224.5t71.5 172.5q0 84 -158 84q-190 0 -382.5 -181.5 t-192.5 -369.5q0 -111 88 -111t182.5 129.5t134.5 243.5q14 41 23 131l31 -4l2 -63v-18q0 -151 -94 -298q-100 -156 -250 -156v1q-151 0 -152 141z" />
<glyph unicode="Z" horiz-adv-x="1103" d="M-125 -444q0 365 746 548q77 164 77 278q0 23 -12 60q-156 -102 -301 -102q-94 0 -94 74t94 121q75 41 157 41q88 0 183 -48q104 84 215 220q29 35 186 243q-119 11 -314 139q-194 127 -327 128h-1q-133 0 -213.5 -129.5t-80.5 -284.5q0 -63 9 -129l-45 -6 q-12 74 -13 131q0 231 155 397t392.5 166t407.5 -238q25 -35 84 -96q201 336 315 336q47 0 47 -49q0 -111 -127 -228t-244 -137q-236 -344 -405 -489q139 -96 139 -258q0 -33 -10 -82q137 47 229 172l27 -21q-61 -84 -116.5 -122.5t-149.5 -67.5q-31 -88 -60 -143 q-106 -193 -350 -403t-430 -210q-170 0 -170 189zM-70 -463q0 -55 33 -93t88 -38q117 0 309 262q139 186 244 395q-244 -57 -428 -174q-246 -155 -246 -352zM360 437q0 -52 72 -52t238 102q-49 54 -123 54t-123 -23q-64 -27 -64 -81zM1217 1059l22 -2h2q63 1 161 109 q100 110 101 180q0 24 -16 24q-72 0 -270 -311z" />
<glyph unicode="[" horiz-adv-x="626" d="M-207 -322l1188 2010h309l-28 -41h-218l-1136 -1926h203l-23 -43h-295z" />
<glyph unicode="\" horiz-adv-x="2519" d="M27 374q6 130 229 204q176 59 338 51q72 -4 315 -51q182 74 336 98l6 6q-2 23 -26.5 71t-42.5 50q-20 0 -174 -43t-236 -39q-143 8 -139 86q4 61 67 76q53 10 105 18q-96 61 -94 109q2 18 28 43q35 10 49 10q61 -2 136 -45l4 2q-76 88 -74 139l8 25q16 29 47 26 q61 -2 142 -118l2 10q-6 41 -9 123q2 33 22.5 67.5t49.5 34.5q41 -2 68 -84q6 -23 24 -117q31 59 69 127t89 64q61 -2 57 -82q0 -18 -32 -113v-6l94 66q63 39 102 37q61 -4 58 -56q-4 -80 -125 -168l16 -2q31 4 94 6q121 -6 117 -73q-4 -92 -234 -117q-84 -8 -278 -6 q18 -39 59 -119q23 2 81 8t83.5 4t67 4.5t141.5 9.5q335 10 559 -85q244 -100 234 -275q-6 -121 -140 -190q-119 -63 -274 -64q-53 0 -102 8q-41 14 -99 17h-8q-276 -264 -655 -264q-145 0 -261 39t-166 85t-108 144q-104 -4 -176 -4q-154 2 -281 53q-169 70 -163 200z M187 406q-5 -99 124 -150q90 -37 172 -41t144 -2q6 10 8 23q25 160 170 272l-4 6q-49 18 -153.5 41t-155.5 25q-113 6 -195 -29q-105 -46 -110 -145zM795 244l2 -15q71 -9 196 47t164 107l-227 90q-47 -23 -90 -97.5t-45 -131.5zM807 821q23 -39 66 -41t115.5 11.5 t94.5 27.5q-68 16 -206 35q-68 4 -70 -33zM825 141q37 -90 157 -141t245 -57t319.5 47t253.5 143q-45 14 -128 43t-236.5 96.5t-225.5 94.5q-27 -10 -79 -67.5t-136 -91.5t-170 -67zM864 947q0 -17 79 -49t106 -34h24q-55 45 -96 71t-77 27.5t-36 -15.5zM965 1049 q-2 -39 135 -142q-14 45 -49 100t-60.5 56.5t-25.5 -14.5zM1018 539l203 -78q14 10 28.5 56t15.5 51.5t-3 60.5l-17 2q-25 0 -112.5 -37t-114.5 -55zM1093 1089.5q-1 -20.5 21.5 -88t38.5 -92.5q19 91 5.5 170.5t-34.5 79.5q-12 0 -21 -24.5t-10 -45zM1200 926l2 -11 q35 33 77 105t44 109.5t-20 39.5q-41 2 -72 -102q-15 -71 -31 -141zM1245 852q47 -6 139 -14q37 -2 117 17.5t80 45.5q2 12 -27.5 22.5t-66.5 12.5q-53 3 -242 -84zM1245 899q121 45 160 66q104 57 106 120q-8 14 -26 15q-51 4 -133 -71t-107 -130zM1264 449 q35 -23 308 -126.5t298 -105.5q10 0 35.5 42t36.5 40q14 0 13 -15t-40 -77q57 -23 162 -47q84 -4 149.5 34.5t71.5 122.5q6 147 -223 250q-178 76 -355 86q-324 16 -420 -18l-2 -41q-1 -71 -34 -145z" />
<glyph unicode="]" horiz-adv-x="632" d="M-307 -322l24 41h217l1137 1926h-203l23 43h297l-1190 -2010h-305z" />
<glyph unicode="^" horiz-adv-x="1001" d="M467 1409v21q207 115 379 272h35q25 -156 135 -279l-29 -24q-94 59 -156 172q-207 -125 -364 -162z" />
<glyph unicode="_" horiz-adv-x="1378" d="M-10 -223h1399v-45h-1399v45z" />
<glyph unicode="`" horiz-adv-x="436" d="M264 956q0 59 58 60q31 0 77 -49l219 -217h-77l-238 143q-39 25 -39 63z" />
<glyph unicode="a" horiz-adv-x="952" d="M-18 319q276 391 524 392q147 0 162 -119l49 80l237 37q-346 -596 -346 -666q0 -10 17 -10q68 0 174 119q31 37 137 180l31 -21q-25 -32 -76 -100q-166 -223 -293 -223q-59 0 -92 41t-33 88t19 114q-173 -243 -301 -243h-1q-82 0 -130 63t-48 138.5t29 154.5 q-10 -14 -31 -45zM160 68q0 -35 47 -35q145 0 368 407q60 107 60 142q-1 33 -23 55t-53 22q-76 0 -237.5 -248.5t-161.5 -342.5z" />
<glyph unicode="b" horiz-adv-x="755" d="M-18 330q90 125 202.5 263t182.5 230q2 2 88 146.5t235 384.5l221 18q-716 -1149 -716 -1311q0 -23 32 -22q104 0 265 166q-58 50 -58 136q0 92 66 224q78 152 168 152q68 0 67 -92q0 -178 -190 -412q14 -4 28 -4q70 0 172 133l31 -20q-113 -147 -203 -148q-27 0 -53 12 q-176 -188 -313 -188q-72 0 -114 46t-42 118q0 135 178 432q-72 -92 -219 -285zM475 326q0 -61 39 -97q143 174 143 254q0 54 -43 54q-55 0 -97 -75t-42 -136z" />
<glyph unicode="c" horiz-adv-x="675" d="M-18 319q268 389 522 390q78 0 132 -38t54 -112q0 -106 -96 -106q-37 0 -61.5 25.5t-24.5 70.5t42 67t42 27q0 27 -45 27q-92 0 -226.5 -241.5t-134.5 -348.5q0 -47 68 -47q199 0 412 299l28 -21q-221 -325 -463 -325q-98 0 -158.5 69.5t-60.5 169.5q0 49 21 107l-23 -33 z" />
<glyph unicode="d" horiz-adv-x="931" d="M-18 328q276 389 512 389q131 0 153 -144l371 621l233 10q-167 -264 -410 -671.5t-243 -477.5q0 -16 16 -16q59 0 168 121q35 39 140 180l28 -21q-121 -164 -155 -200q-115 -123 -213 -123q-55 0 -88 40t-33 87t22 106q-76 -94 -118 -135q-102 -98 -190.5 -98t-135.5 55 t-47 127t37 156l-19 -27zM135 76q0 -35 35 -35q115 0 256 182q63 84 188 293v27q0 123 -77 123q-68 0 -235 -251t-167 -339z" />
<glyph unicode="e" horiz-adv-x="688" d="M-18 319q285 391 548 392q174 0 175 -148q0 -133 -181 -231q-127 -70 -291 -103q-37 -66 -36 -92q0 -104 71 -104q190 0 410 299l29 -21q-236 -323 -461 -323q-104 0 -167 66.5t-63 170.5q0 53 21 113q-10 -16 -27 -39zM250 266q70 16 117 39q82 39 159.5 135t77.5 176 q0 58 -49 58q-80 0 -184 -170q-61 -98 -121 -238z" />
<glyph unicode="f" horiz-adv-x="552" d="M-403 -651q195 305 411 721q-37 37 -37 80t27 77.5t68 34.5q12 0 34 -10q94 197 183 344q-145 -117 -273 -297l-28 20q158 219 331 345q383 688 625 688q47 0 79 -30t32 -76t-41 -128q-78 -160 -263 -332q-113 -104 -323 -266q-135 -303 -229 -485q96 25 172.5 94 t177.5 203l28 -21q-106 -141 -174 -200q-109 -96 -223 -115q-139 -317 -356 -633zM449 586q262 193 428 485q90 156 90 215q0 31 -44 31t-116 -68q-98 -90 -358 -663z" />
<glyph unicode="g" horiz-adv-x="911" d="M-258 -522q0 145 227 297q115 78 350 184l70 152q-119 -133 -223 -134q-72 0 -113 61.5t-41 133.5t33 164l-35 -47l-28 20q272 387 507 387q121 0 136 -125l55 101l229 20q-233 -406 -358 -667q158 39 350 297l29 -21q-111 -144 -174 -201q-106 -96 -224 -114 q-154 -313 -233 -424q-186 -258 -385 -258q-74 0 -123 50t-49 124zM-186 -582q0 -80 88 -80q129 0 268 297l129 277q-86 -39 -137 -70q-111 -66 -229.5 -194.5t-118.5 -229.5zM158 49q0 -31 28 -31q106 0 256 218t150 320q0 99 -66 99q-84 0 -226 -254t-142 -352z" />
<glyph unicode="h" horiz-adv-x="1009" d="M-76 -2q213 356 463 793q-139 -174 -377 -482l-28 21q84 113 165 217l238 299q33 41 119 149l196 359l228 12q-86 -160 -310.5 -539.5t-345.5 -605.5q387 496 516 496q55 0 86 -51q29 -43 29 -121q0 -132 -184 -379q-63 -88 -63 -105.5t36 -17.5q98 0 307 299l29 -20 q-125 -168 -158 -203q-113 -121 -211 -121q-129 0 -129 156q0 98 68 217q31 53 112 159.5t81 122.5t-13 17q-80 0 -317 -283q-135 -160 -291 -377z" />
<glyph unicode="i" horiz-adv-x="518" d="M-18 322q170 236 315 374h238l-203 -336q-150 -252 -150 -311q0 -14 19 -14q63 0 168 119q29 31 139 180l29 -19q-115 -157 -156 -200q-115 -123 -209 -123q-61 0 -94 45t-33 108q0 96 219 471q-96 -96 -254 -313zM483 1007.5q0 46.5 40 93t93 46.5q92 0 93 -100 q0 -55 -39.5 -98.5t-87.5 -43.5t-73.5 28t-25.5 74.5z" />
<glyph unicode="j" horiz-adv-x="557" d="M-549 -559q0 158 199 334q141 127 330 225q92 193 307 598q-154 -123 -277 -301l-28 18q172 256 348 371l225 4q-190 -328 -358 -659q98 23 190 110q59 55 160 187l28 -19q-102 -137 -176 -203q-109 -98 -223 -114q-303 -682 -606 -682q-53 0 -86 38t-33 93zM-494 -594 q0 -59 58 -59h2q84 0 225 260q20 37 164 336q-254 -127 -389 -371q-60 -105 -60 -166zM487 1004q0 48 38 92.5t93 44.5q96 0 97 -99q0 -57 -39 -99t-88 -42t-75 27.5t-26 75.5z" />
<glyph unicode="k" horiz-adv-x="931" d="M-61 2l448 791q-139 -176 -377 -484l-28 21q59 82 165 217l238 299q33 41 119 149q10 20 215 379l219 -4q-195 -322 -766 -1352zM391 412q0 43 117 45q16 2 49 30l119 136q84 94 136 94t88 -33t36 -74t-26.5 -68.5t-61.5 -27.5t-57.5 22.5t-22.5 55.5t21.5 55.5 t23.5 28.5q0 4 -8 4q-33 0 -122 -103t-128 -131q109 -53 109 -147q0 -49 -35 -140t-35 -103.5t20 -12.5q61 0 168 119q35 39 140 180l28 -20q-142 -189 -162 -209q-111 -115 -227 -115q-149 0 -149 117q0 59 51 162.5t51 115.5t-8 27q-63 -27 -89 -27t-26 19z" />
<glyph unicode="l" horiz-adv-x="501" d="M-18 330q68 96 213 276.5t176.5 221t128 207.5t198.5 321l215 16l-411 -688q-330 -565 -330 -631q0 -10 14 -10q63 0 168 119q23 27 138 180l30 -20q-133 -174 -155 -199q-115 -125 -209 -125q-59 0 -90 47q-29 39 -29 100q0 106 229 500q-147 -180 -258 -336z" />
<glyph unicode="m" horiz-adv-x="1511" d="M-18 319q281 387 397 388q110 0 110 -134q0 -92 -63 -219q-8 -14 -41 -71q113 156 150 198q182 221 284 221q115 0 115 -145q0 -94 -90 -276q296 421 435 421h1q59 0 92 -46t33 -120.5t-50.5 -171t-115.5 -196.5t-65 -117.5t20 -17.5q68 0 166 119q12 14 141 180l29 -21 q-68 -109 -156 -198q-121 -125 -205 -125q-122 0 -122 156q0 103 49 200t117.5 191t68.5 114q0 14 -20 15q-92 0 -295 -275q-139 -186 -250 -379l-252 -14q102 160 209.5 364t107.5 277q0 14 -10 14q-106 0 -526 -637l-254 -16q356 553 356 651q0 10 -6 13q-68 0 -332 -363z " />
<glyph unicode="n" horiz-adv-x="1077" d="M-18 319q129 178 176 232q137 156 223 156q108 0 108 -127q0 -88 -65 -224q-6 -12 -59 -110q123 166 178 231q195 229 297 230q121 0 121 -150q0 -100 -66 -221q-27 -49 -101.5 -156.5t-74.5 -130.5q0 -18 29 -18q76 0 178 116q10 12 141 185l29 -21q-82 -104 -156 -200 q-113 -123 -213 -123q-135 0 -135 166q0 94 65 213q33 57 110 156.5t77 121.5q0 16 -23 17q-82 0 -301 -271q-125 -154 -272 -373l-260 -30q362 549 362 657q0 14 -10 14q-68 0 -330 -360z" />
<glyph unicode="o" horiz-adv-x="720" d="M-18 319q266 387 522 388q172 0 172 -183q0 -164 -205 -391q10 -2 14 -2q53 0 104.5 57.5t121.5 143.5l28 -21q-81 -104 -114 -135q-78 -78 -146 -78q-18 0 -37 2q-122 -113 -220 -113l-1 1q-98 0 -151 70.5t-54 168.5q0 49 27 121q-16 -23 -33 -49zM188 72q0 -45 43 -45 q84 0 175 92q-9 20 -9 37q0 25 21 42q22 17 51 11q140 228 140 345q0 114 -68 114q-94 0 -223.5 -241.5t-129.5 -354.5z" />
<glyph unicode="p" horiz-adv-x="985" d="M-395 -545l776 1319q-139 -174 -371 -475l-28 20q84 115 262 333t260 333l114 197h181l-500 -889l160 182q154 166 209 199t101 33t77 -48.5t31 -122t-68 -196.5q-31 -57 -107.5 -164.5t-76.5 -132.5q0 -14 26 -14q78 0 176 118q31 37 144 185l26 -21 q-202 -323 -362 -323q-129 0 -129 155q0 96 67 217q33 57 111 159t78 122t-17 21q-85 0 -534 -525q-45 -76 -127 -223l-252 -449z" />
<glyph unicode="q" horiz-adv-x="876" d="M-18 309q264 387 518 387q125 0 141 -125l66 111h217q-140 -236 -359 -633q74 20 158 103q16 18 143 170l29 -21q-156 -227 -320 -287q33 -88 33 -151q0 -156 -112 -340q-127 -209 -271 -209q-129 0 -129 151q0 106 113 318l160 295q-113 -100 -194 -100l-1 -1 q-80 0 -121 63q-41 62 -41 132.5t33 165.5l-35 -49zM162 49q0 -31 24 -31q150 0 328 320q92 164 92 230q0 89 -69 89q-84 0 -229.5 -256t-145.5 -352zM231 -623q0 -24 23 -24h2q18 0 61 31q109 74 182.5 211t73.5 268q1 61 -32 145q-309 -575 -310 -631z" />
<glyph unicode="r" horiz-adv-x="663" d="M-18 322l294 395q-16 20 -16 47t21.5 55.5t52.5 28.5t31 -33t-39 -90q47 -23 142 -72t95 -112.5t-109.5 -264t-109.5 -220t14 -19.5q70 0 166 119q33 39 138 178l28 -21q-206 -321 -362 -321q-63 0 -100.5 45t-37.5 110q0 109 106.5 287t106.5 193.5t-33 33t-67 35.5 l-293 -395z" />
<glyph unicode="s" horiz-adv-x="598" d="M-31 178q0 45 23.5 79t63.5 34t65.5 -25.5t25.5 -69.5t-59 -77q-37 -23 -37 -31q0 -37 50 -37t96 70q121 188 120 405q-2 25 -16 170l-291 -393l-28 19l321 430q12 122 87 122h1q27 0 27 -20q0 -6 -39 -44t-39 -78t74.5 -184.5t74.5 -222t-26 -151.5q57 61 135 178 l31 -20q-113 -162 -183 -228q-118 -112 -249 -112h-2q-88 0 -157 50t-69 136z" />
<glyph unicode="t" horiz-adv-x="520" d="M-12 328q76 102 428 546q29 49 102.5 176.5t128.5 202.5l213 19l-178 -293h172v-39h-199q-473 -817 -473 -883q0 -16 27 -16q63 0 168 119q29 31 139 180l29 -18q-127 -170 -154 -199q-115 -127 -205 -127q-59 0 -96 42t-37 101q0 106 113 310q37 66 121 208 q-104 -131 -271 -348z" />
<glyph unicode="u" horiz-adv-x="995" d="M-18 319q162 221 313 373l246 17q-346 -582 -346 -660q0 -16 12 -16q84 0 305 303q35 47 242 358l250 15l-195 -349q-145 -264 -145 -315q0 -12 16 -12q61 0 166 119q25 29 139 180l31 -21q-117 -153 -158 -198q-117 -125 -211 -125q-59 0 -93 41t-34 109.5t129 332.5 q-113 -168 -170 -240q-189 -241 -300 -241h-1q-57 0 -90 42t-33 99q0 121 209 481q-104 -106 -254 -313z" />
<glyph unicode="v" horiz-adv-x="854" d="M-18 319q137 188 176 232q137 156 223 156q106 0 106 -144q0 -115 -105.5 -300t-105.5 -211t46 -25q98 0 266 170q-58 51 -58 144q0 92 70 218q78 145 168 146q70 0 70 -87q0 -172 -195 -413q14 -2 31 -2q74 0 172 129l26 -21q-106 -143 -200 -143q-27 0 -54 8 q-176 -188 -307 -188q-82 0 -126 54t-44 137q0 133 160 374q57 86 57 97t-10 12q-72 0 -338 -363zM569 320.5q0 -60.5 43 -99.5q162 197 162 285q0 33 -29 33q-63 0 -119.5 -79t-56.5 -139.5z" />
<glyph unicode="w" horiz-adv-x="1230" d="M-18 319q96 125 168.5 214.5t146.5 158.5l252 17q-96 -145 -228.5 -373.5t-132.5 -280.5q0 -14 19 -14q131 0 536 651l254 17q-90 -137 -210.5 -364.5t-120.5 -291.5q0 -27 34 -26q115 0 275 178q-43 51 -43 141t71.5 234.5t159.5 144.5q70 0 70 -96q0 -150 -207 -414 q18 -4 35 -4q70 0 160 121l26 -19q-100 -137 -190 -137q-25 0 -53 10q-88 -94 -132 -127q-89 -70 -166 -70l-1 1q-77 0 -120.5 56t-43.5 136q0 106 88 273l-162 -230q-178 -223 -285 -223q-57 0 -90 43t-33 116.5t88 248.5q27 53 117 204q-102 -102 -254 -313zM973 323.5 q0 -57.5 24 -90.5q164 205 164 287q1 33 -26 33q-61 0 -111.5 -86t-50.5 -143.5z" />
<glyph unicode="x" horiz-adv-x="819" d="M-47 96q0 94 92 94q55 0 74.5 -46t30.5 -46q37 0 149 219q12 100 18 128t23.5 91.5t17.5 93t-16 29.5q-68 0 -332 -360l-28 20q127 174 178 232q137 156 223 156q121 0 145 -234q127 233 238 234q43 0 70.5 -28t27.5 -71q0 -88 -86 -88q-80 0 -80 92q0 16 -8 17 q-16 0 -84.5 -102.5t-75.5 -131.5q-4 -61 -22 -176q-31 -125 -31 -155.5t25 -30.5q61 0 164 114q25 29 143 185l29 -21q-51 -70 -156 -200q-104 -123 -207 -123q-141 0 -174 258q-131 -258 -244 -258q-45 0 -74.5 31.5t-29.5 76.5z" />
<glyph unicode="y" horiz-adv-x="1017" d="M-166 -528q0 158 225 301q96 61 359 178l209 426q-117 -162 -150 -203q-160 -197 -256 -197q-55 0 -86 47.5t-31 106.5q0 168 199 416q70 84 70 95t-19 11q-76 0 -344 -364l-28 20q281 387 393 387q51 0 79.5 -44t28.5 -97q0 -96 -69 -221q-31 -57 -112 -172t-81 -130 t15 -16q88 0 290 279q129 176 246 377l240 18q-205 -354 -355 -665q98 23 177.5 95t173.5 202l28 -21q-113 -146 -174 -201q-106 -96 -225 -114q-47 -92 -143 -275q-224 -407 -495 -407h-1q-72 0 -118 48t-46 120zM-96 -596q0 -66 88 -66q49 0 92 35q66 51 180 265 q12 20 131 268q-155 -76 -233 -133q-119 -86 -188.5 -194.5t-69.5 -174.5z" />
<glyph unicode="z" horiz-adv-x="798" d="M-203 -555q0 154 240 342q104 82 360 233q14 37 14.5 65t-26.5 54q-119 -96 -191.5 -96t-72.5 48t60 71.5t109.5 23.5t86.5 -10q80 68 170 195q-68 -18 -113 -19q-155 0 -155 125q0 41 32 107l31 63v4q-68 0 -332 -362l-28 20q127 176 178 234q134 153 224 153h1 q96 0 96 -100q0 -51 -47 -125l-41 -70q2 -14 53 -14t127 25q167 286 236 286q35 0 35 -39q0 -126 -244 -278q-94 -137 -186 -215q63 -31 98 -100q152 84 276 256l29 -21q-135 -184 -291 -268q20 -53 21 -96q0 -199 -203 -416t-399 -217q-66 0 -107 39t-41 102zM-156 -575 q0 -80 68 -80q94 0 274 272q139 209 199 352q-177 -104 -322 -229q-219 -188 -219 -315z" />
<glyph unicode="{" horiz-adv-x="3319" d="M-2 147q0 242 78 471q-27 135 -27 205.5t27 165t71 94.5q33 0 33 -122.5t-59 -339.5q8 -49 63 -259q12 14 69.5 125t57.5 123q0 -4 -11 52.5t-11 189.5q0 217 63 217t63.5 -104.5t-50.5 -251.5l-25 -68l53 -276h2q53 98 150 299q-18 80 -19 123q0 313 88 313 q49 0 50 -103q0 -61 -42 -166.5t-42 -121.5t24.5 -135t30.5 -132l106 199q-16 66 -16 131q0 221 90 221q33 0 41 -43q-20 -135 -88 -288q10 -61 43 -156q246 477 541 577q63 20 290.5 57.5t492.5 37.5t575 -33q459 -47 477 -141q-8 -25 -18.5 -50.5t-35.5 -42.5 q-104 -63 -481 -94q-270 -25 -536 -24q76 -49 88 -60q53 -43 53 -86q0 -66 -92 -90l-4 -4q35 -33 70.5 -68.5t35.5 -79t-39 -60.5t-76 -32q66 -74 66 -135q0 -135 -207 -190q-127 -35 -315 -35q-293 0 -486 84q-25 16 -80 43q-41 -66 -92 -94l-4 2q35 31 88 98 q-82 59 -82 106.5t37 47.5q55 0 58 -131q152 -92 356 -109l70 2q143 4 272 43q184 57 184 162q0 88 -73 121v6q45 0 80.5 25.5t35.5 74.5t-35.5 71.5t-74.5 43.5l2 4q45 6 73.5 43t28.5 86t-51 89t-107 42v6l13 4q53 -6 129 -6q883 0 952 140q-4 57 -336 90q-236 23 -456 22 q-711 0 -1047 -176q-219 -115 -334 -430q8 -16 21.5 -104.5t13.5 -112.5q0 -135 -72 -135q-57 0 -57 104q0 70 70 256l-48 141q-49 -94 -104 -219q16 -47 16 -200q0 -221 -86 -222q-57 0 -57 56q0 117 100 360q-31 125 -67 254q-53 -106 -148 -323q23 -59 23 -235.5 t-74 -176.5q-31 0 -48 32.5t-17 65.5q0 100 98 330q-18 100 -64 248q-125 -283 -124 -293q16 -170 16 -199q0 -262 -98 -262q-27 0 -42 39t-16 72q0 123 107 362q-16 80 -64 232l-4 -2q-25 -66 -33 -105l-4 -4q-46 -181 -47 -221l8 -86v-19l-14 -2q-4 33 -4 49zM74 809 q6 -43 22 -129q8 10 29.5 66.5t21.5 70.5q0 63 -28 64q-35 -20 -45 -72zM111 115q0 -80 39 -80l18 6q26 34 22 63l-18 156q-61 -113 -61 -145zM303 817l29 -145q12 16 26.5 77.5t14.5 94.5t-25 33t-32 -20.5t-13 -39.5zM340 166q0 -51 29 -51q35 0 34 63q0 2 -14 119 q-14 -20 -31.5 -65.5t-17.5 -65.5zM553 860q0 -43 22 -115q27 78 27 118t-29 40q-20 0 -20 -43zM575 225q0 -51 29 -51q14 0 25.5 18.5t11.5 26.5t-18 137l-7 -4q-41 -76 -41 -127zM748 764q0 -2 16 -74q13 31 27 90l-17 17q-27 0 -26 -33zM805 436q-38 -121 4 -121h6l10 33 q0 16 -20 88zM1069 188.5q0 -12.5 55 -69.5q0 20 -12 56t-25 36q-4 0 -11 -5t-7 -17.5z" />
<glyph unicode="|" horiz-adv-x="2519" d="M27 834q6 121 132 187t281 66q55 0 103 -8q41 -14 98 -16h8q276 264 658 264q143 0 258.5 -39t171.5 -88q45 -43 102 -141q106 4 218 3t239 -52q172 -70 164 -199q-6 -131 -228 -205q-178 -59 -340 -51q-72 4 -315 51q-182 -74 -336 -98l-6 -6q2 -23 27.5 -71t42.5 -50 q20 0 173.5 43t235.5 39q143 -8 139 -86q-4 -61 -67 -76q-51 -10 -105 -18q96 -61 95 -109q0 -18 -29 -43q-35 -10 -71.5 -8t-112.5 43l-4 -2q78 -88 73 -139l-6 -25q-18 -29 -49 -27q-61 2 -141 119v-8q4 -41 6 -125q-2 -33 -22.5 -67.5t-49.5 -32.5q-41 2 -65 82 q-8 23 -27 116q-31 -59 -68.5 -126.5t-89.5 -63.5q-61 2 -57 82q2 18 35 112l-2 7q-45 -33 -92 -66q-66 -39 -103 -37q-61 4 -59 55q4 80 125 168l-15 2q-33 -4 -96 -6q-119 6 -117 74q6 92 234 117q84 8 280 6q-20 39 -61 119q-23 -2 -81 -8.5t-83.5 -4.5t-65.5 -4t-142 -9 q-337 -10 -560 85q-242 100 -233 275zM190 866q-8 -147 224 -250q176 -76 354 -86q322 -16 418 19l2 41q2 71 35 147q-33 20 -307.5 124t-299.5 106q-10 0 -34.5 -42t-36.5 -40q-14 0 -13.5 15t39.5 77q-57 23 -161 47q-84 4 -150 -35t-70 -123zM686 1051q45 -14 135 -43 q76 -29 229.5 -96.5t227.5 -94.5q25 10 77 67.5t134 94.5q86 30 174 63q-39 90 -159 141.5t-243.5 57.5t-318.5 -47t-256 -143zM905 283q0 -12 29 -22.5t66 -12.5q52 -3 241 84q-47 6 -139 14q-37 2 -116 -17.5t-81 -45.5zM977 98q6 -14 27 -14q49 -2 130.5 73t106.5 128 q-121 -45 -160 -66q-102 -57 -104 -121zM1163 54q-2 -38 21 -40q41 -2 64.5 86t37.5 158l-2 10q-33 -33 -76 -104.5t-45 -109.5zM1221 600q2 12 6 -45l14 -2q25 0 112.5 37t114.5 55l-202 78q-12 -10 -27.5 -55t-17.5 -68zM1327.5 103.5q13.5 -79.5 36.5 -78.5 q10 0 19.5 24.5t10.5 45t-21.5 88t-39.5 91.5q-19 -91 -5.5 -170.5zM1329 801l227 -90q49 23 91.5 97.5t44.5 131.5v14q-73 8 -198.5 -47t-164.5 -106zM1389 276q12 -45 47 -100t60.5 -56t25.5 15q2 39 -133 141zM1403 365q70 -14 207 -35q67 -5 69 32q-23 39 -65.5 41 t-115.5 -11t-95 -27zM1413 322q57 -47 97 -73t76 -27.5t36 14.5q2 18 -78 50t-106 33zM1681 676l5 -6q49 -18 153.5 -41t155.5 -25q113 -6 194 29q105 45 110 144t-124 151q-90 37 -171 41t-142 2q-6 -10 -9 -23q-27 -160 -172 -272z" />
<glyph unicode="}" horiz-adv-x="3319" d="M-2 1008q61 -154 483 -203q190 -20 588 -21q-43 -27 -88 -53q-53 -39 -53 -80q0 -66 92 -90l6 -4q-37 -33 -72 -65q-35 -39 -34.5 -82.5t41.5 -63.5q35 -14 71 -29q-63 -74 -63 -135q0 -135 205 -190q129 -35 317 -35q291 0 483 84q27 16 80 43q43 -66 94 -94l4 2 q-35 31 -88 98q80 59 80 106.5t-35 47.5q-57 0 -59 -131q-150 -92 -354 -109q-195 0 -344 45q-184 57 -185 162q0 88 76 121v6q-47 0 -83 25.5t-36 74.5t37 71.5t74 43.5l-2 4q-45 6 -74 43t-29 86t51.5 89t108.5 42v6l-12 4q-53 -6 -131 -6q-883 0 -950 140q2 57 333 90 q236 23 457 22q711 0 1047 -176q109 -57 200 -197q18 -25 136 -233q-8 -16 -21.5 -104.5t-13.5 -112.5q0 -135 69 -135q57 0 58 104q0 70 -68 256l45 141q51 -94 105 -219q-16 -47 -17 -200q0 -221 86 -222q57 0 58 56q0 117 -99 360q29 125 68 254q51 -106 145 -323 q-23 -59 -22.5 -235.5t76.5 -176.5q31 0 47 32.5t16 65.5q0 100 -96 330q18 100 63 248q125 -283 123 -293q-14 -170 -14 -199q0 -262 98 -262q27 0 41 39t14 72q0 123 -106 362q16 80 65 232l2 -2q27 -66 33 -105l4 -4q41 -182 41 -248.5t-2 -58.5l2 -19l13 -2q4 33 4 49 q0 242 -78 471q29 135 29 205.5t-27 165t-74 94.5q-33 0 -33 -122.5t62 -339.5q-10 -49 -64 -259q-14 14 -70.5 125t-56.5 123q0 -4 11.5 52.5t11.5 189.5q0 217 -66 217q-61 0 -61 -104.5t51 -251.5l23 -68l-54 -276h-2q-51 98 -147 299q16 80 16 123q0 313 -86 313 q-49 0 -49 -103q0 -61 41 -166.5t41 -121.5t-23.5 -135t-31.5 -132l-107 199q16 66 17 131q0 221 -90 221q-33 0 -41 -43q20 -135 88 -288q-10 -61 -41 -156q-248 477 -541 577q-66 20 -292 57.5t-492.5 37.5t-575.5 -33q-459 -47 -477 -141zM2062 119q0 20 11.5 56t25.5 36 q19 0 19 -16q-1 -19 -56 -76zM2359 348q0 16 21 88q18 -57 18 -89t-22 -32h-4zM2394 780l16 17q29 0 29 -33q0 -2 -16 -74q-15 31 -29 90zM2544 219q0 8 20 137l6 -4q41 -76 41 -127t-31 -51q-12 0 -24 18.5t-12 26.5zM2583 863q0 40 28 40q23 0 23 -43t-23 -115 q-28 78 -28 118zM2781 178q1 2 17 119q12 -20 29.5 -65.5t17.5 -65.5q0 -51 -29 -51q-35 0 -35 63zM2812 844q0 33 29 33q20 0 28 -20.5t15 -39.5l-31 -145q-10 16 -25.5 77.5t-15.5 94.5zM2994 104l21 156q59 -113 59 -145q0 -80 -37 -80l-18 6q-29 34 -25 63zM3037 817 q0 63 31 64q35 -20 45 -72q-6 -43 -25 -129q-8 10 -29.5 66.5t-21.5 70.5z" />
<glyph unicode="~" horiz-adv-x="583" d="M43 1507q63 135 147 135q37 0 120 -48t106 -48q90 0 125 66l20 -41q-63 -133 -147 -133q-35 0 -119 48t-107 48q-86 0 -116 -57z" />
<glyph unicode="&#xa2;" horiz-adv-x="628" d="M123 543q2 139 127 261t264 122q6 0 12 -2q51 98 60 98h55q-31 -49 -66 -107q90 -27 90.5 -111.5t-79.5 -84.5q-68 0 -68 69q0 43 33 61.5t33 20.5q0 20 -35 21q-70 0 -178 -194.5t-109 -276.5q0 -35 53 -35q94 0 135.5 30t108.5 124l43 4q-77 -112 -125 -150 q-66 -47 -170 -47q-51 -80 -52 -90t-13 -6t-39 14q18 37 49 88q-63 16 -97 69.5t-32 121.5z" />
<glyph unicode="&#xa3;" horiz-adv-x="1531" d="M-4 74q0 84 140 84t243 -52q51 63 95 164t83 193h-240l35 65l221 -4q145 287 271 396q168 150 440 149.5t272 -244.5q0 -104 -83 -171.5t-182 -67.5t-160.5 61.5t-57.5 155.5h25q-2 -78 47 -124t124 -46t130 54t55 138t-60.5 143.5t-149.5 59.5t-157 -63 q-53 -45 -100 -129.5t-80 -146.5t-88 -161l207 -2l-35 -61l-203 -4q-150 -262 -331 -393q137 -61 243 -62q276 0 365 76q45 39 82 100.5t37 106.5q0 61 -72 61q-98 0 -180 -141l-27 27q33 61 93.5 112t120.5 51t115.5 -43t55.5 -116.5t-66.5 -152.5t-146.5 -107t-207 -27.5 t-218 17.5t-226 77q-113 -74 -242 -74q-188 0 -188 101zM47 72q0 -68 139 -68q51 0 74.5 13.5t79.5 54.5q-144 51 -201 51q-92 0 -92 -51z" />
<glyph unicode="&#xa5;" horiz-adv-x="1253" d="M186 -12q147 76 271 262q20 33 55 86h-180l28 53h183q12 12 28 45h-172l29 49h168q156 244 156 385t-168 142q-84 0 -163 -52.5t-91 -130.5q35 -4 35 -55q0 -61 -60 -61q-41 0 -51 26q-4 12 -4 40t12 65q35 98 126 152t207 54.5t193.5 -81.5t77.5 -190.5t-2 -127.5 q236 381 400 381q47 0 79.5 -36t32.5 -77t-24.5 -67.5t-59.5 -26.5q-68 0 -67 66q0 29 23.5 53.5t25.5 30.5q0 10 -23 10q-96 0 -432 -500h170l-31 -53h-176l-28 -41h182l-31 -51h-188l-191 -340z" />
<glyph unicode="&#xa8;" d="M459 881q0 35 23.5 58.5t57.5 23.5t57.5 -25t23.5 -58.5t-23.5 -56t-58.5 -22.5t-57.5 22.5t-22.5 57.5zM702 881q0 35 24 58.5t58 23.5q35 0 57.5 -24t22.5 -58q0 -35 -23.5 -57.5t-58.5 -22.5t-57.5 22.5t-22.5 57.5z" />
<glyph unicode="&#xa9;" horiz-adv-x="1445" d="M-8 681q0 294 205.5 496.5t498.5 202.5t496 -207.5t203 -496.5t-206 -495t-496 -206t-495.5 206t-205.5 500zM100 676q0 -248 172 -423t421 -175t423 175t174 426t-175 426t-425 175t-420 -178t-170 -426zM313.5 671q-0.5 171 106.5 300t272 129q88 0 182 -62l39 56h72 v-355h-80q-35 141 -59 185q-49 88 -154 88q-199 0 -198 -344q0 -313 211 -314q182 0 223 238l88 -14q-41 -314 -324 -314q-172 0 -275 118t-103.5 289z" />
<glyph unicode="&#xab;" horiz-adv-x="577" d="M43 401l303 226q10 -45 -4 -45q-4 -6 -25 -25l-77 -72q-91 -84 -107 -96q3 -25 82 -260l-22 -43zM268 401l303 226q10 -45 -4 -45q-4 -6 -24 -25l-78 -72q-91 -84 -107 -96q4 -25 82 -260l-22 -43z" />
<glyph unicode="&#xad;" horiz-adv-x="655" d="M102 385l23 70h438l-24 -68z" />
<glyph unicode="&#xae;" horiz-adv-x="765" d="M53 1049q0 131 91.5 221t221.5 90t221 -93t91 -222t-91 -219.5t-221 -90.5t-221.5 91.5t-91.5 222.5zM100 1047q0 -111 77 -189t188 -78t187.5 78t76.5 190t-77 188.5t-188 76.5t-187.5 -78t-76.5 -188zM199 881v41h53v280q-4 0 -13 -1q-27 -3 -40 -3v43h174 q135 0 135 -94q0 -61 -78 -88q33 -29 49 -96q4 -10 8 -21.5t7 -11.5q10 0 10 47h39v-14q0 -89 -68 -89q-57 0 -67.5 69t-16.5 79q-14 25 -67 25v-125h51v-41h-176zM324 1087h41q66 0 65 58q0 55 -47 55h-59v-113z" />
<glyph unicode="&#xb4;" d="M319 752l224 217q47 49 75 49q59 0 60 -60q0 -38 -41 -63l-236 -143h-82z" />
<glyph unicode="&#xb8;" horiz-adv-x="831" d="M215 -350l31 51q31 -33 86 -33t119.5 56.5t64.5 115.5t-51 60q-18 0 -46 -37t-44 -37q-25 0 -25 27q0 37 76 73l78 105l51 -31l-78 -72q96 -10 96 -100t-73.5 -151.5t-151.5 -61.5t-133 35z" />
<glyph unicode="&#xbb;" horiz-adv-x="577" d="M47 90q-10 47 4 47l211 193l-84 258l23 43l149 -316zM272 90q-10 47 4 47l211 193l-84 258l23 43l149 -316z" />
<glyph unicode="&#xc0;" horiz-adv-x="1699" d="M8 207q0 92 47 150.5t123 58.5q39 0 76 -34t37 -73q0 -68 -68 -98q-55 -18 -112 -39q-18 -20 -19 -43q0 -55 57.5 -86t116.5 -31q246 0 492 297q-88 145 -88 256t47 178.5t135 67.5q127 0 217 -131q231 279 393 424q260 233 523 301q-207 -281 -400 -678 q-84 -174 -291 -653q213 27 379 248l31 -19q-100 -129 -195 -191.5t-235 -74.5l-25 -45l-250 4l52 88q-154 61 -271 199q-266 -307 -514 -308q-106 0 -182 70t-76 162zM739.5 488.5q-0.5 -70.5 42.5 -148.5q41 47 260 313q-55 58 -123.5 58t-123.5 -76t-55.5 -146.5z M803 311q115 -139 260 -194q47 141 47 277t-47 224q-168 -193 -260 -307zM1087 649q57 -109 58 -264q0 -63 -17 -158l353 564q197 307 395 546q-209 -94 -424 -293q-150 -139 -365 -395zM1624 1653q0 59 57 59q31 0 78 -49l219 -217h-77l-238 143q-39 25 -39 64z" />
<glyph unicode="&#xc2;" horiz-adv-x="1699" d="M8 207q0 92 47 150.5t123 58.5q39 0 76 -34t37 -73q0 -68 -68 -98q-55 -18 -112 -39q-18 -20 -19 -43q0 -55 57.5 -86t116.5 -31q246 0 492 297q-88 145 -88 256t47 178.5t135 67.5q127 0 217 -131q231 279 393 424q260 233 523 301q-207 -281 -400 -678 q-84 -174 -291 -653q213 27 379 248l31 -19q-100 -129 -195 -191.5t-235 -74.5l-25 -45l-250 4l52 88q-154 61 -271 199q-266 -307 -514 -308q-106 0 -182 70t-76 162zM739.5 488.5q-0.5 -70.5 42.5 -148.5q41 47 260 313q-55 58 -123.5 58t-123.5 -76t-55.5 -146.5z M803 311q115 -139 260 -194q47 141 47 277t-47 224q-168 -193 -260 -307zM1087 649q57 -109 58 -264q0 -63 -17 -158l353 564q197 307 395 546q-209 -94 -424 -293q-150 -139 -365 -395zM1573 1409v21q207 115 379 272h35q25 -156 135 -279l-29 -24q-94 59 -156 172 q-207 -125 -364 -162z" />
<glyph unicode="&#xc6;" horiz-adv-x="2260" d="M8 207q0 92 47 150.5t123 58.5q39 0 76 -34t37 -73q0 -68 -68 -98q-55 -18 -112 -39q-18 -20 -19 -43q0 -55 57.5 -86t116.5 -31q246 0 492 297q-88 145 -88 256t47 178.5t135 67.5q127 0 217 -131q231 279 393 424q260 233 516 299q-12 -33 -26 -60q135 72 254.5 72 t203.5 -62.5t84 -177t-60.5 -201.5t-156.5 -87q-57 0 -91 44t-34 103q0 121 154 215l21 -20q-119 -104 -119 -228q0 -33 21.5 -56t54.5 -23q78 0 128 80t50 162.5t-53.5 144t-135.5 61.5q-139 0 -248.5 -110.5t-109.5 -249.5q0 -53 41 -152q33 6 67 6q135 0 166 -76 q-20 -39 -32 -50t-48 -11q-72 0 -208 74q-170 -59 -289 -207t-119 -320q0 -113 58.5 -183.5t168.5 -70.5q168 0 301 115t133 281q0 53 -29.5 93t-80.5 40q-113 0 -189 -139q-63 -115 -69 -242l-33 -4q-6 31 -6 136.5t75 197.5t197 92q76 0 124 -51.5t48 -126.5 q0 -176 -150.5 -305.5t-328.5 -129.5q-117 0 -220 58.5t-159 159.5q-31 -82 -84 -203l-250 4l54 80q-147 61 -273 207q-266 -307 -514 -308q-106 0 -182 70t-76 162zM739.5 488.5q-0.5 -70.5 42.5 -148.5q41 47 260 313q-55 58 -123.5 58t-123.5 -76t-55.5 -146.5zM803 311 q115 -139 260 -194q41 127 41 274t-41 227q-168 -193 -260 -307zM1087 649q57 -109 58 -264q0 -63 -17 -158l353 564q197 307 395 546q-209 -94 -424 -293q-150 -139 -365 -395zM1579 762q125 61 268 84q-94 98 -98 213q-92 -147 -170 -297zM1997 827q57 -53 102 -53t45 17 q0 32 -125 32q-10 0 -22 4z" />
<glyph unicode="&#xc7;" horiz-adv-x="1122" d="M-8 993q0 190 162 303t360 113q59 0 154 -12l-6 -37q-90 14 -132 14q-166 0 -303 -150.5t-137 -314.5t225 -211q137 236 390 455q295 256 516 256q66 0 110.5 -48t44.5 -116q0 -221 -303 -399q-238 -139 -506 -182q-82 -160 -108 -234q-51 -135 -51 -252q0 -166 172 -166 q160 0 299 125t139 283q0 55 -29 94q-31 47 -84 47q-197 0 -258 -366l-31 -5q-14 82 -14 117q0 119 78 207t197 88q74 0 126 -53t52 -127q0 -174 -150.5 -310.5t-326.5 -136.5q-37 0 -76 11q-12 -33 -37 -88q31 10 72 12q111 10 110 -94q0 -59 -67 -94q-116 -61 -226 -17 l21 41q23 -18 52.5 -18t83.5 39.5t54 76.5q0 25 -48 25t-116 -27q23 53 68 150q-139 43 -202.5 168t-53.5 227l6 55q6 82 82 226q-309 66 -309 325zM588 700q477 104 672 461q47 84 47 127t-26.5 64.5t-61.5 21.5q-213 0 -631 -674z" />
<glyph unicode="&#xc8;" d="M-2 399.5q0 182.5 170 313.5q143 111 352 145q-98 102 -98 225q0 160 138 252t287.5 92t235.5 -63.5t86 -176.5t-61.5 -200.5t-157.5 -87.5q-57 0 -91 44t-34 104q0 121 154 215l20 -21q-119 -104 -118 -227q0 -33 21.5 -56.5t53.5 -23.5q78 0 128 80t50.5 164t-52 144 t-136.5 60q-139 0 -239.5 -128t-100.5 -271q0 -53 23 -113q23 4 47 4q147 0 182 -86l-22 -36l-54 -13q-72 0 -209 74q-164 -59 -263 -219t-99 -338q0 -223 225 -223q168 0 300 114.5t132 280.5q0 53 -29.5 93t-80.5 40q-113 0 -189 -139q-63 -115 -69 -242l-31 -4 q-20 63 -20 111q0 123 81.5 219t202.5 96q76 0 124 -51t48 -127q0 -176 -146.5 -303t-322.5 -127t-307 111.5t-131 294zM653 831q59 -57 105.5 -57t46.5 18.5t-39 30.5q-62 19 -113 8zM702 1653q0 59 58 59q31 0 78 -49l219 -217h-78l-238 143q-39 25 -39 64z" />
<glyph unicode="&#xc9;" d="M-2 399.5q0 182.5 170 313.5q143 111 352 145q-98 102 -98 225q0 160 138 252t287.5 92t235.5 -63.5t86 -176.5t-61.5 -200.5t-157.5 -87.5q-57 0 -91 44t-34 104q0 121 154 215l20 -21q-119 -104 -118 -227q0 -33 21.5 -56.5t53.5 -23.5q78 0 128 80t50.5 164t-52 144 t-136.5 60q-139 0 -239.5 -128t-100.5 -271q0 -53 23 -113q23 4 47 4q147 0 182 -86l-22 -36l-54 -13q-72 0 -209 74q-164 -59 -263 -219t-99 -338q0 -223 225 -223q168 0 300 114.5t132 280.5q0 53 -29.5 93t-80.5 40q-113 0 -189 -139q-63 -115 -69 -242l-31 -4 q-20 63 -20 111q0 123 81.5 219t202.5 96q76 0 124 -51t48 -127q0 -176 -146.5 -303t-322.5 -127t-307 111.5t-131 294zM653 831q59 -57 105.5 -57t46.5 18.5t-39 30.5q-62 19 -113 8zM729 1448l223 217q47 49 76 49q59 0 59 -59q1 -39 -40 -64l-236 -143h-82z" />
<glyph unicode="&#xca;" d="M-2 399.5q0 182.5 170 313.5q143 111 352 145q-98 102 -98 225q0 160 138 252t287.5 92t235.5 -63.5t86 -176.5t-61.5 -200.5t-157.5 -87.5q-57 0 -91 44t-34 104q0 121 154 215l20 -21q-119 -104 -118 -227q0 -33 21.5 -56.5t53.5 -23.5q78 0 128 80t50.5 164t-52 144 t-136.5 60q-139 0 -239.5 -128t-100.5 -271q0 -53 23 -113q23 4 47 4q147 0 182 -86l-22 -36l-54 -13q-72 0 -209 74q-164 -59 -263 -219t-99 -338q0 -223 225 -223q168 0 300 114.5t132 280.5q0 53 -29.5 93t-80.5 40q-113 0 -189 -139q-63 -115 -69 -242l-31 -4 q-20 63 -20 111q0 123 81.5 219t202.5 96q76 0 124 -51t48 -127q0 -176 -146.5 -303t-322.5 -127t-307 111.5t-131 294zM590 1450v20q207 115 379 273h35q25 -156 135 -279l-29 -24q-94 59 -156 172q-207 -125 -364 -162zM653 831q59 -57 105.5 -57t46.5 18.5t-39 30.5 q-62 19 -113 8z" />
<glyph unicode="&#xcb;" d="M-2 399.5q0 182.5 170 313.5q143 111 352 145q-98 102 -98 225q0 160 138 252t287.5 92t235.5 -63.5t86 -176.5t-61.5 -200.5t-157.5 -87.5q-57 0 -91 44t-34 104q0 121 154 215l20 -21q-119 -104 -118 -227q0 -33 21.5 -56.5t53.5 -23.5q78 0 128 80t50.5 164t-52 144 t-136.5 60q-139 0 -239.5 -128t-100.5 -271q0 -53 23 -113q23 4 47 4q147 0 182 -86l-22 -36l-54 -13q-72 0 -209 74q-164 -59 -263 -219t-99 -338q0 -223 225 -223q168 0 300 114.5t132 280.5q0 53 -29.5 93t-80.5 40q-113 0 -189 -139q-63 -115 -69 -242l-31 -4 q-20 63 -20 111q0 123 81.5 219t202.5 96q76 0 124 -51t48 -127q0 -176 -146.5 -303t-322.5 -127t-307 111.5t-131 294zM653 831q59 -57 105.5 -57t46.5 18.5t-39 30.5q-62 19 -113 8zM696 1598q0 42 29 71t71 29t70.5 -30t28.5 -71t-29.5 -69.5t-70.5 -28.5t-70 28.5 t-29 70.5zM1001 1598q0 42 29 71t71 29t70.5 -30t28.5 -71t-29.5 -69.5t-70.5 -28.5t-70 28.5t-29 70.5z" />
<glyph unicode="&#xce;" horiz-adv-x="1161" d="M8 248q0 78 47 139.5t109.5 61.5t96.5 -32t34 -84t-41 -81q-20 -14 -76.5 -30.5t-79.5 -33.5l-12 -41q27 -119 209 -118q145 0 256 135q53 66 151 262q-123 33 -194.5 119t-71.5 209q0 301 404 499q332 162 667 168l4 -35q-143 -2 -254 -188q-84 -139 -159 -389l-99 -322 q248 104 248 367q0 29 -6 68l33 4q12 -72 12 -99q0 -131 -87 -233t-216 -152q-100 -207 -273 -329.5t-395 -122.5q-125 0 -216 68.5t-91 189.5zM545 629q0 -125 172 -172l170 354q191 389 475 565q-200 -29 -313 -76q-174 -76 -339 -284.5t-165 -386.5zM1040 1430v20 q207 115 379 272h35q25 -156 135 -278l-28 -25q-94 59 -156 172q-207 -125 -365 -161z" />
<glyph unicode="&#xcf;" horiz-adv-x="1161" d="M8 248q0 78 47 139.5t109.5 61.5t96.5 -32t34 -84t-41 -81q-20 -14 -76.5 -30.5t-79.5 -33.5l-12 -41q27 -119 209 -118q145 0 256 135q53 66 151 262q-123 33 -194.5 119t-71.5 209q0 301 404 499q332 162 667 168l4 -35q-143 -2 -254 -188q-84 -139 -159 -389l-99 -322 q248 104 248 367q0 29 -6 68l33 4q12 -72 12 -99q0 -131 -87 -233t-216 -152q-100 -207 -273 -329.5t-395 -122.5q-125 0 -216 68.5t-91 189.5zM545 629q0 -125 172 -172l170 354q191 389 475 565q-200 -29 -313 -76q-174 -76 -339 -284.5t-165 -386.5zM1106 1578 q0 42 28.5 70.5t70.5 28.5t71 -29.5t29 -70.5t-30 -69.5t-71 -28.5t-69.5 28.5t-28.5 70.5zM1411 1578q0 42 28.5 70.5t70.5 28.5t71 -29.5t29 -70.5t-30 -69.5t-71 -28.5t-69.5 28.5t-28.5 70.5z" />
<glyph unicode="&#xd4;" horiz-adv-x="1122" d="M14 352q0 418 449 799q303 258 561 258q84 0 146.5 -47t62.5 -129q0 -45 -35 -121l-33 14q29 66 29 103q0 70 -49 108.5t-119 38.5q-346 0 -674 -692q-172 -367 -172 -569q0 -106 117 -107q317 0 618 602q137 272 138 430q0 94 -86 95q-129 0 -291 -244 q-231 -344 -277 -703l-32 5q32 309 232 642t370 332q139 0 139 -186t-154 -444q-131 -225 -295 -379q-197 -186 -350 -186.5t-223.5 114t-71.5 266.5zM774 1409v21q207 115 379 272h35q25 -156 135 -279l-29 -24q-94 59 -155 172q-207 -125 -365 -162z" />
<glyph unicode="&#xd9;" horiz-adv-x="1454" d="M-16 674q0 178 166 383q268 334 577 334q154 0 253 -91.5t99 -245t-125 -335.5q-72 -102 -213 -313q-162 -250 -161 -349q0 -47 45 -47q182 0 487 516l195 330q94 160 239 373q109 12 226 16q-185 -293 -428 -715t-242 -497q0 -14 14 -15q113 0 340 304l27 -19 q-236 -326 -385 -326q-125 0 -125 162q0 68 35 160q-98 -133 -142 -178q-137 -147 -232 -147.5t-135 74.5t-40 165q0 158 125 352q78 113 218 320.5t140 326.5q0 76 -76 115q-57 31 -141 31q-231 0 -468 -227.5t-237 -456.5q0 -66 38 -112t102 -46q129 0 261 230.5 t132 375.5q0 16 -8 70l33 4q37 -125 36 -227q0 -190 -121.5 -340t-308.5 -150q-90 0 -145 52.5t-55 142.5zM1153 1653q0 59 57 59q31 0 78 -49l219 -217h-77l-238 143q-39 25 -39 64z" />
<glyph unicode="&#xdb;" horiz-adv-x="1454" d="M-16 674q0 178 166 383q268 334 577 334q154 0 253 -91.5t99 -245t-125 -335.5q-72 -102 -213 -313q-162 -250 -161 -349q0 -47 45 -47q182 0 487 516l195 330q94 160 239 373q109 12 226 16q-185 -293 -428 -715t-242 -497q0 -14 14 -15q113 0 340 304l27 -19 q-236 -326 -385 -326q-125 0 -125 162q0 68 35 160q-98 -133 -142 -178q-137 -147 -232 -147.5t-135 74.5t-40 165q0 158 125 352q78 113 218 320.5t140 326.5q0 76 -76 115q-57 31 -141 31q-231 0 -468 -227.5t-237 -456.5q0 -66 38 -112t102 -46q129 0 261 230.5 t132 375.5q0 16 -8 70l33 4q37 -125 36 -227q0 -190 -121.5 -340t-308.5 -150q-90 0 -145 52.5t-55 142.5zM1122 1389v20q207 115 379 272h35q25 -156 135 -278l-29 -25q-94 59 -155 172q-207 -125 -365 -161z" />
<glyph unicode="&#xdc;" horiz-adv-x="1454" d="M-16 674q0 178 166 383q268 334 577 334q154 0 253 -91.5t99 -245t-125 -335.5q-72 -102 -213 -313q-162 -250 -161 -349q0 -47 45 -47q182 0 487 516l195 330q94 160 239 373q109 12 226 16q-185 -293 -428 -715t-242 -497q0 -14 14 -15q113 0 340 304l27 -19 q-236 -326 -385 -326q-125 0 -125 162q0 68 35 160q-98 -133 -142 -178q-137 -147 -232 -147.5t-135 74.5t-40 165q0 158 125 352q78 113 218 320.5t140 326.5q0 76 -76 115q-57 31 -141 31q-231 0 -468 -227.5t-237 -456.5q0 -66 38 -112t102 -46q129 0 261 230.5 t132 375.5q0 16 -8 70l33 4q37 -125 36 -227q0 -190 -121.5 -340t-308.5 -150q-90 0 -145 52.5t-55 142.5zM1147 1557.5q0 41.5 28.5 70.5t70.5 29t71 -30t29 -71t-30 -69.5t-71 -28.5t-69.5 29t-28.5 70.5zM1452 1557.5q0 41.5 28.5 70.5t70.5 29t71 -30t29 -71t-30 -69.5 t-71 -28.5t-69.5 29t-28.5 70.5z" />
<glyph unicode="&#xe0;" horiz-adv-x="935" d="M-18 319q276 391 524 392q147 0 162 -119l49 80l237 37q-346 -596 -346 -666q0 -10 17 -10q68 0 172 117q29 33 139 182l31 -21q-52 -69 -158 -200q-104 -123 -211 -123q-57 0 -91 41t-34 86t19 116q-174 -244 -302 -243q-82 0 -130 62t-48 137.5t29 156.5 q-12 -18 -31 -45zM160 68q0 -35 47 -35q143 0 368 407q59 106 59.5 140.5t-21 56.5t-54.5 22q-76 0 -238 -252t-161 -339zM469 956q0 59 57 60q31 0 78 -49l219 -217h-78l-237 143q-39 25 -39 63z" />
<glyph unicode="&#xe2;" horiz-adv-x="937" d="M-18 319q276 391 524 392q147 0 162 -119l49 80l237 37q-346 -596 -346 -666q0 -10 17 -10q68 0 172 117q29 33 139 182l31 -21q-52 -69 -158 -200q-104 -123 -211 -123q-57 0 -91 41t-34 86t19 116q-174 -244 -302 -243q-82 0 -130 62t-48 137.5t29 156.5 q-12 -18 -31 -45zM160 68q0 -35 47 -35q143 0 368 407q59 106 59.5 140.5t-21 56.5t-54.5 22q-76 0 -238 -252t-161 -339zM438 760v20q166 90 305 217h29q18 -125 109 -225l-25 -20q-104 63 -135 114q-113 -66 -283 -106z" />
<glyph unicode="&#xe6;" horiz-adv-x="991" d="M-74 135q6 172 183 256q76 35 284 78q35 106 35 149q0 55 -51 50q-88 -14 -99.5 -19.5t-50.5 -48.5q16 -14 17 -55q0 -59 -60.5 -59.5t-60.5 59.5q0 14 6 26q104 141 244.5 141.5t195.5 -87.5q117 86 269 86q176 0 172 -148q0 -133 -219 -246q-176 -92 -310 -98 q-6 -41 0 -69.5t6 -49t30 -44t58 -23.5q190 0 410 299l31 -21q-236 -323 -463 -323q-121 0 -186 88q-117 -88 -271 -88q-176 0 -170 147zM25 82q0 -55 49 -55q76 0 182 168q66 104 123 235q-74 -17 -135.5 -45.5t-140.5 -125.5t-78 -177zM492 266q76 18 198 56 q78 35 149.5 125t71.5 158.5t-49 68.5q-137 0 -254 -162q-94 -127 -116 -246z" />
<glyph unicode="&#xe7;" horiz-adv-x="675" d="M-18 319q258 371 522 390q76 4 119 -25q68 -47 67 -125q0 -106 -96 -106q-37 0 -61.5 25.5t-24.5 70.5t42 67t42 27q0 27 -45 27q-92 0 -226.5 -241.5t-134.5 -348.5q0 -47 68 -47q199 0 412 299l28 -21q-221 -325 -463 -325q-10 0 -18 2q-10 -25 -29 -68q8 4 70 12 q100 16 100 -79q0 -49 -58 -97.5t-144 -48.5q-39 0 -84 19l20 41q23 -18 41 -19q55 0 102 62q27 33 27 56q0 49 -147 -3q23 45 69 131q-78 16 -123 81.5t-45 132t21 124.5l-23 -33z" />
<glyph unicode="&#xe8;" horiz-adv-x="688" d="M-18 319q285 391 548 392q174 0 175 -148q0 -133 -181 -231q-127 -70 -288 -103q-35 -106 -35 -151t67 -45q190 0 410 299l29 -21q-236 -323 -461 -323q-104 0 -167 66.5t-63 170.5q0 53 21 113q-10 -16 -27 -39zM250 266q70 16 117 39q82 39 159.5 135t77.5 176 q0 58 -49 58q-80 0 -184 -170q-61 -98 -121 -238zM326 956q0 59 57 60q31 0 78 -49l219 -217h-78l-237 143q-39 25 -39 63z" />
<glyph unicode="&#xe9;" horiz-adv-x="688" d="M-18 319q285 391 548 392q174 0 175 -148q0 -133 -181 -231q-127 -70 -288 -103q-35 -106 -35 -151t67 -45q190 0 410 299l29 -21q-236 -323 -461 -323q-104 0 -167 66.5t-63 170.5q0 53 21 113q-10 -16 -27 -39zM250 266q70 16 117 39q82 39 159.5 135t77.5 176 q0 58 -49 58q-80 0 -184 -170q-61 -98 -121 -238zM360 752l224 217q47 49 75 49q59 0 60 -60q0 -38 -41 -63l-236 -143h-82z" />
<glyph unicode="&#xea;" horiz-adv-x="688" d="M-18 319q285 391 548 392q174 0 175 -148q0 -133 -181 -231q-127 -70 -288 -103q-35 -106 -35 -151t67 -45q190 0 410 299l29 -21q-236 -323 -461 -323q-104 0 -167 66.5t-63 170.5q0 53 21 113q-10 -16 -27 -39zM250 266q70 16 117 39q82 39 159.5 135t77.5 176 q0 58 -49 58q-80 0 -184 -170q-61 -98 -121 -238zM315 760v20q166 90 306 217h28q18 -125 109 -225l-25 -20q-104 63 -135 114q-113 -66 -283 -106z" />
<glyph unicode="&#xeb;" horiz-adv-x="688" d="M-18 319q285 391 548 392q174 0 175 -148q0 -133 -181 -231q-127 -70 -288 -103q-35 -106 -35 -151t67 -45q190 0 410 299l29 -21q-236 -323 -461 -323q-104 0 -167 66.5t-63 170.5q0 53 21 113q-10 -16 -27 -39zM250 266q70 16 117 39q82 39 159.5 135t77.5 176 q0 58 -49 58q-80 0 -184 -170q-61 -98 -121 -238zM418 881q0 35 23.5 58.5t57.5 23.5t57.5 -25t23.5 -58.5t-23.5 -56t-58.5 -22.5t-57.5 22.5t-22.5 57.5zM662 881q0 35 23.5 58.5t57.5 23.5q35 0 57.5 -24t22.5 -58q0 -35 -23.5 -57.5t-58.5 -22.5t-57 22.5t-22 57.5z" />
<glyph unicode="&#xee;" horiz-adv-x="518" d="M-18 322q170 236 315 374h238l-203 -336q-150 -252 -150 -311q0 -14 19 -14q63 0 168 119q29 31 139 180l29 -19q-115 -157 -156 -200q-115 -123 -209 -123q-61 0 -94 45t-33 108q0 96 219 471q-96 -96 -254 -313zM213 760v20q166 90 305 217h29q18 -125 108 -225 l-24 -20q-104 63 -135 114q-113 -66 -283 -106z" />
<glyph unicode="&#xef;" horiz-adv-x="518" d="M-18 322q170 236 315 374h238l-203 -336q-150 -252 -150 -311q0 -14 19 -14q63 0 168 119q29 31 139 180l29 -19q-115 -157 -156 -200q-115 -123 -209 -123q-61 0 -94 45t-33 108q0 96 219 471q-96 -96 -254 -313zM274 881q0 35 24 58.5t57.5 23.5t57 -25t23.5 -58.5 t-23.5 -56t-58.5 -22.5t-57.5 22.5t-22.5 57.5zM518 881q0 35 23.5 58.5t58.5 23.5t57.5 -24t22.5 -58q0 -35 -23.5 -57.5t-58.5 -22.5t-57.5 22.5t-22.5 57.5z" />
<glyph unicode="&#xf4;" horiz-adv-x="716" d="M-18 319q266 387 522 388q172 0 172 -183q0 -164 -205 -391q10 -2 14 -2q53 0 104.5 57.5t121.5 143.5l28 -21q-81 -104 -114 -135q-78 -78 -146 -78q-18 0 -37 2q-123 -113 -221 -112.5t-151 71t-54 168.5q0 49 27 121q-16 -23 -33 -49zM188 72q0 -45 43 -45 q84 0 175 92q-23 51 12 79q22 17 51 11q139 227 139.5 343t-67.5 116q-94 0 -223.5 -241.5t-129.5 -354.5zM274 760v20q166 90 306 217h28q18 -125 109 -225l-25 -20q-104 63 -135 114q-113 -66 -283 -106z" />
<glyph unicode="&#xf9;" horiz-adv-x="995" d="M-18 319q162 221 313 373l246 17q-346 -582 -346 -660q0 -16 12 -16q84 0 305 303q35 47 242 358l250 15l-195 -349q-145 -264 -145 -315q0 -12 16 -12q59 0 166 119q35 39 139 180l31 -21q-117 -153 -158 -198q-117 -125 -211 -125q-59 0 -93 41t-34 109.5t129 332.5 q-113 -168 -170 -240q-190 -242 -301 -241q-57 0 -90 42t-33 99q0 121 209 481q-104 -106 -254 -313zM530 956q0 59 58 60q31 0 78 -49l219 -217h-78l-238 143q-39 25 -39 63z" />
<glyph unicode="&#xfb;" horiz-adv-x="995" d="M-18 319q162 221 313 373l246 17q-346 -582 -346 -660q0 -16 12 -16q84 0 305 303q35 47 242 358l250 15l-195 -349q-145 -264 -145 -315q0 -12 16 -12q59 0 166 119q35 39 139 180l31 -21q-117 -153 -158 -198q-117 -125 -211 -125q-59 0 -93 41t-34 109.5t129 332.5 q-113 -168 -170 -240q-190 -242 -301 -241q-57 0 -90 42t-33 99q0 121 209 481q-104 -106 -254 -313zM438 760v20q166 90 305 217h29q18 -125 109 -225l-25 -20q-104 63 -135 114q-113 -66 -283 -106z" />
<glyph unicode="&#xfc;" horiz-adv-x="995" d="M-18 319q162 221 313 373l246 17q-346 -582 -346 -660q0 -16 12 -16q84 0 305 303q35 47 242 358l250 15l-195 -349q-145 -264 -145 -315q0 -12 16 -12q59 0 166 119q35 39 139 180l31 -21q-117 -153 -158 -198q-117 -125 -211 -125q-59 0 -93 41t-34 109.5t129 332.5 q-113 -168 -170 -240q-190 -242 -301 -241q-57 0 -90 42t-33 99q0 121 209 481q-104 -106 -254 -313zM479 881q0 35 23.5 58.5t57.5 23.5t57.5 -25t23.5 -58.5t-23.5 -56t-58.5 -22.5t-57.5 22.5t-22.5 57.5zM723 881q0 35 23.5 58.5t58.5 23.5t57.5 -24t22.5 -58 q0 -35 -23.5 -57.5t-58.5 -22.5t-57.5 22.5t-22.5 57.5z" />
<glyph unicode="&#xff;" horiz-adv-x="1017" d="M-166 -528q0 158 225 301q96 61 359 178l209 426q-117 -162 -150 -203q-160 -197 -256 -197q-55 0 -86 47.5t-31 106.5q0 168 199 416q70 84 70 95t-19 11q-76 0 -344 -364l-28 20q281 387 393 387q51 0 79.5 -44t28.5 -97q0 -96 -69 -221q-31 -57 -112 -172t-81 -130 t15 -16q88 0 290 279q129 176 246 377l240 18q-205 -354 -355 -665q98 23 177.5 95t173.5 202l28 -21q-113 -146 -174 -201q-106 -96 -225 -114q-47 -92 -143 -275q-225 -408 -496 -407q-72 0 -118 48t-46 120zM-96 -596q0 -66 88 -66q49 0 92 35q66 51 180 265 q12 20 131 268q-155 -76 -233 -133q-119 -86 -188.5 -194.5t-69.5 -174.5zM471 923q0 42 28.5 70.5t70.5 28.5t71 -29.5t29 -70.5t-30 -70t-71 -29t-69.5 29t-28.5 71zM776 923q0 42 29 70.5t71 28.5t70.5 -29.5t28.5 -70.5t-30 -70t-71 -29t-69.5 29t-28.5 71z" />
<glyph unicode="&#x152;" horiz-adv-x="1808" d="M14 352q0 418 449 799q303 258 561 258q84 0 146.5 -47t62.5 -129q0 -45 -35 -121l-33 14q29 66 29 103q0 70 -49 108.5t-119 38.5q-346 0 -674 -692q-172 -367 -172 -569q0 -106 117 -107q279 0 555 481q20 80 76 148q125 256 125 403q0 94 -86 95q-129 0 -291 -244 q-231 -344 -277 -703l-32 5q12 100 36 196q51 211 205 465q190 313 361 313q139 0 139 -186q0 -100 -51 -233q131 82 303 110q-98 102 -98 225q0 160 138 252t287.5 92t235.5 -63.5t86 -176.5t-61.5 -200.5t-157.5 -87.5q-57 0 -91 44t-34 104q0 121 154 215l20 -21 q-119 -104 -119 -227q0 -33 21.5 -56.5t54.5 -23.5q78 0 128 80t50 164t-52 144t-136 60q-139 0 -239.5 -128t-100.5 -271q0 -53 22 -113q23 4 48 4q147 0 182 -86l-23 -36l-53 -13q-72 0 -209 74q-164 -59 -263 -219t-99 -338q0 -223 225 -223q168 0 300 114.5t132 280.5 q0 53 -29.5 93t-81.5 40q-113 0 -188 -139q-63 -115 -70 -242l-30 -4q-20 63 -21 111q0 123 82 219t203 96q76 0 124 -51t48 -127q0 -176 -146.5 -303t-317.5 -127t-301 103t-140 263q-113 -150 -236 -251q-168 -137 -308 -137.5t-210.5 114t-71.5 266.5zM1493 831 q59 -57 105.5 -57t46.5 17q-1 20 -40 32q-62 19 -112 8z" />
<glyph unicode="&#x153;" horiz-adv-x="1191" d="M-18 319q266 387 522 388q84 0 117.5 -40t33.5 -126q0 -29 -4 -58q72 92 185.5 155.5t224.5 63.5q156 0 156 -139q0 -133 -191 -231q-129 -68 -299 -103q-14 -51 -14 -149q0 -51 67 -51q188 0 410 303l29 -21q-238 -327 -461 -327q-84 0 -145.5 49t-77.5 133 q-131 -190 -304 -191q-96 0 -155 77t-60 175q0 49 25 117q-14 -20 -31 -45zM184 115q4 -25 33 -63t51 -38q164 35 258 213q82 152 82 336q1 105 -67 105q-119 0 -243 -213t-114 -340zM739 272q47 10 131 37q78 39 162 135t84 172q0 43 -55 43q-80 0 -180.5 -137t-141.5 -250 z" />
<glyph unicode="&#x178;" horiz-adv-x="1171" d="M6 809q0 203 201 396.5t405 193.5q121 0 206 -71t85 -177t-76 -246q-10 -18 -110.5 -176t-100.5 -205q0 -20 35 -20q113 0 287 217q82 106 222.5 292.5t287.5 313.5l25 -24q-142 -166 -220 -412q-39 -137 -125 -408q-74 -213 -257.5 -363.5t-411.5 -150.5q-135 0 -236 65 t-100 193q0 80 48 138.5t126 58.5q119 0 119 -113q0 -66 -62 -94q-33 -12 -98 -35q-47 -18 -47 -65t82 -82q70 -27 137 -27q121 0 202 72t222 354q37 74 158 324q-80 -104 -133 -158q-131 -131 -238 -131q-66 0 -108 56.5t-42 139t74 222.5q12 18 111.5 178t99.5 215 q0 84 -158 84q-190 0 -382.5 -181.5t-192.5 -369.5q0 -111 88 -111t182 130.5t135 242.5q12 39 23 131l31 -4l4 -63q0 -164 -99 -318t-248.5 -153.5t-150.5 141.5zM860 1557.5q0 41.5 29 70.5t71 29t70.5 -30t28.5 -71t-30 -69.5t-71 -28.5t-69.5 29t-28.5 70.5z M1165 1557.5q0 41.5 29 70.5t71 29t70.5 -30t28.5 -71t-29.5 -69.5t-70.5 -28.5t-70 29t-29 70.5z" />
<glyph unicode="&#x2c6;" horiz-adv-x="620" d="M172 760v20q166 90 305 217h29q18 -125 108 -225l-24 -20q-104 63 -135 114q-113 -66 -283 -106z" />
<glyph unicode="&#x2da;" horiz-adv-x="704" d="M436 913q0 57 38 98.5t95 41.5t97.5 -41t40.5 -99q0 -57 -40.5 -97t-97.5 -40t-95 40t-38 97zM492 914q0 -34 22.5 -58.5t56 -24.5t57 24t23.5 58q0 35 -23.5 59.5t-58.5 24.5t-56 -24.5t-21 -58.5z" />
<glyph unicode="&#x2dc;" horiz-adv-x="878" d="M399 817q53 111 121 111q29 0 96.5 -39t83.5 -39q72 0 101 51l18 -33q-53 -106 -121 -106q-29 0 -96 38t-84 38q-68 0 -92 -47z" />
<glyph unicode="&#x2000;" horiz-adv-x="871" />
<glyph unicode="&#x2001;" horiz-adv-x="1743" />
<glyph unicode="&#x2002;" horiz-adv-x="871" />
<glyph unicode="&#x2003;" horiz-adv-x="1743" />
<glyph unicode="&#x2004;" horiz-adv-x="581" />
<glyph unicode="&#x2005;" horiz-adv-x="435" />
<glyph unicode="&#x2006;" horiz-adv-x="290" />
<glyph unicode="&#x2007;" horiz-adv-x="290" />
<glyph unicode="&#x2008;" horiz-adv-x="217" />
<glyph unicode="&#x2009;" horiz-adv-x="348" />
<glyph unicode="&#x200a;" horiz-adv-x="96" />
<glyph unicode="&#x2010;" horiz-adv-x="655" d="M102 385l23 70h438l-24 -68z" />
<glyph unicode="&#x2011;" horiz-adv-x="655" d="M102 385l23 70h438l-24 -68z" />
<glyph unicode="&#x2012;" horiz-adv-x="655" d="M102 385l23 70h438l-24 -68z" />
<glyph unicode="&#x2013;" horiz-adv-x="739" d="M37 319l4 13l14 22l17 11h618l15 -15l-19 -35l-18 -10h-617z" />
<glyph unicode="&#x2014;" horiz-adv-x="1398" d="M37 319l4 13l14 22l17 11l1247 -15l-4 -10l-15 -25l-18 -10h-1231z" />
<glyph unicode="&#x2018;" horiz-adv-x="528" d="M199 909q0 131 194 289q139 115 316 201l18 -31q-146 -74 -203 -119q-109 -86 -108 -176l22 -119q0 -59 -39 -105t-90 -46t-80.5 30.5t-29.5 75.5z" />
<glyph unicode="&#x2019;" horiz-adv-x="407" d="M256 831q147 76 203 119q111 84 110 176l-22 119q0 59 38 105.5t89 46.5t81.5 -32t30.5 -77q0 -129 -198 -289q-144 -116 -318 -200z" />
<glyph unicode="&#x201a;" horiz-adv-x="528" d="M-182 -305q147 74 202 117q111 84 111 176l-22 118q0 59 36.5 106.5t89 47.5t83 -31.5t30.5 -76.5q0 -129 -198 -289q-144 -117 -318 -201z" />
<glyph unicode="&#x201c;" horiz-adv-x="675" d="M-8 909q0 131 196 289q139 113 316 201l18 -31q-137 -70 -196 -115q-115 -88 -115 -180l22 -119q0 -59 -38.5 -105t-89 -46t-82 30.5t-31.5 75.5zM313 903q0 129 197 289q143 117 317 201l15 -33q-141 -70 -197 -113q-115 -88 -115 -180q0 -20 11.5 -59t11.5 -60 q0 -59 -39 -105t-89 -46t-81 30.5t-31 75.5z" />
<glyph unicode="&#x201d;" horiz-adv-x="528" d="M338 831q143 74 197 115q117 88 116 180l-22 119q0 59 38 105.5t88 46.5t81.5 -32t31.5 -77q0 -129 -198 -289q-144 -116 -318 -200zM657 825q143 74 197 115q117 88 117 180l-23 119q0 59 38 105.5t88 46.5t82 -32t32 -77q0 -129 -199 -289q-143 -116 -317 -200z" />
<glyph unicode="&#x201e;" horiz-adv-x="772" d="M-182 -305q147 74 202 117q111 84 111 176l-22 118q0 59 36.5 106.5t89 47.5t83 -31.5t30.5 -76.5q0 -129 -198 -289q-144 -117 -318 -201zM135 -309q143 72 203 119q113 86 113 176l-23 118q0 59 37 106.5t88 47.5t82 -31.5t31 -76.5q0 -127 -199 -289 q-145 -119 -313 -201z" />
<glyph unicode="&#x2026;" horiz-adv-x="1261" d="M74 66q0 39 30.5 72.5t69.5 33.5q76 0 76 -80q0 -39 -33 -71.5t-72 -32.5q-72 0 -71 78zM545 66q0 39 30.5 72.5t69.5 33.5q76 0 76 -80q0 -39 -33 -71.5t-72 -32.5q-72 0 -71 78zM995 66q0 39 31 72.5t70 33.5q76 0 75 -80q0 -39 -32.5 -71.5t-71.5 -32.5q-72 0 -72 78z " />
<glyph unicode="&#x202f;" horiz-adv-x="348" />
<glyph unicode="&#x2039;" horiz-adv-x="477" d="M84 401l303 226q10 -45 -4 -45q-4 -6 -25 -25l-77 -72q-91 -84 -107 -96q5 -33 82 -260l-23 -43z" />
<glyph unicode="&#x203a;" horiz-adv-x="477" d="M88 90q-10 47 4 47l211 193l-84 258l23 43l149 -316z" />
<glyph unicode="&#x205f;" horiz-adv-x="435" />
<glyph unicode="&#x2122;" horiz-adv-x="1224" d="M8 1126v211h426l2 -211h-53q0 41 -10 101q-25 57 -84 57q-18 0 -19 -14v-391h78v-54h-254v54h80q-2 63 -2 391q0 14 -18 14q-61 0 -88 -67q0 -27 -7 -91h-51zM498 825v56q57 0 67 19.5t10 82.5v295h-73v59h194l129 -340l123 340h182l5 -55h-76v-401h74v-56h-242v56h74 v340l-144 -396h-33l-151 398v-240q0 -59 11 -81t67 -21v-56h-217z" />
<glyph unicode="&#xe000;" horiz-adv-x="706" d="M0 0v707h707v-707h-707z" />
</font>
</defs>
</svg>
