<?xml version="1.0" encoding="UTF-8" standalone="no"?>
<!-- Generator: Adobe Illustrator 15.1.0, SVG Export Plug-In . SVG Version: 6.00 Build 0)  -->

<svg
   xmlns:dc="http://purl.org/dc/elements/1.1/"
   xmlns:cc="http://creativecommons.org/ns#"
   xmlns:rdf="http://www.w3.org/1999/02/22-rdf-syntax-ns#"
   xmlns:svg="http://www.w3.org/2000/svg"
   xmlns="http://www.w3.org/2000/svg"
   xmlns:sodipodi="http://sodipodi.sourceforge.net/DTD/sodipodi-0.dtd"
   xmlns:inkscape="http://www.inkscape.org/namespaces/inkscape"
   version="1.0"
   id="Layer_1"
   x="0px"
   y="0px"
   width="701.21875"
   height="419.86499"
   viewBox="0 0 701.21875 419.86499"
   enable-background="new 0 0 792 612"
   xml:space="preserve"
   inkscape:version="0.48.4 r9939"
   sodipodi:docname="htmlcss.svg"><metadata
     id="metadata49"><rdf:RDF><cc:Work
         rdf:about=""><dc:format>image/svg+xml</dc:format><dc:type
           rdf:resource="http://purl.org/dc/dcmitype/StillImage" /><dc:title /></cc:Work></rdf:RDF></metadata><defs
     id="defs47" /><sodipodi:namedview
     pagecolor="#ffffff"
     bordercolor="#666666"
     borderopacity="1"
     objecttolerance="10"
     gridtolerance="10"
     guidetolerance="10"
     inkscape:pageopacity="0"
     inkscape:pageshadow="2"
     inkscape:window-width="1024"
     inkscape:window-height="742"
     id="namedview45"
     showgrid="false"
     fit-margin-top="0"
     fit-margin-left="0"
     fit-margin-right="0"
     fit-margin-bottom="0"
     inkscape:zoom="0.77124183"
     inkscape:cx="487.32039"
     inkscape:cy="279.02556"
     inkscape:window-x="1366"
     inkscape:window-y="0"
     inkscape:window-maximized="1"
     inkscape:current-layer="g25" /><g
     id="g3"
     transform="translate(-48.3125,-81.135)"><path
       style="fill:#babdb6;fill-opacity:1"
       d="M 48.3125,163.65625 75.375,467.28125 196.84375,501 318.65625,467.21875 345.75,163.65625 l -297.4375,0 z m 55.34375,62.0625 93.25,0 0.125,0 93.15625,0 -0.875,9.96875 -1.71875,18.875 -0.75,8.375 -0.0937,0 -89.71875,0 -0.125,0 -52.5625,0 3.40625,38.15625 49.15625,0 0.125,0 76.40625,0 10.03125,0 -0.90625,10 -8.75,98.03125 -0.5625,6.28125 -76.21875,21.125 -0.125,0.0312 -0.0312,0.0312 -76.28125,-21.1875 -5.21875,-58.46875 17.21875,0 20.15625,0 2.65625,29.6875 41.46875,11.21875 0.0312,0 0,-0.0312 0.125,-0.0312 41.40625,-11.15625 4.3125,-48.3125 -45.71875,0 -0.125,0 -83.1875,0 -9.15625,-102.625 -0.90625,-9.96875 z"
       id="polygon5"
       inkscape:connector-curvature="0" /><path
       d="m 75.988,81.135 h 18.924 v 18.696 h 17.311 V 81.135 h 18.925 v 56.618 h -18.924 v -18.958 h -17.31 v 18.958 H 75.988 l 0,-56.618 0,0 z"
       id="path13"
       style="fill:#babdb6;fill-opacity:1"
       inkscape:connector-curvature="0" /><path
       d="m 156.032,99.91 h -16.66 V 81.135 h 52.252 V 99.91 h -16.667 v 37.843 H 156.033 V 99.91 h -10e-4 z"
       id="path15"
       style="fill:#babdb6;fill-opacity:1"
       inkscape:connector-curvature="0" /><path
       d="m 199.917,81.135 h 19.733 l 12.137,19.894 12.127,-19.894 h 19.739 v 56.618 H 244.807 V 109.69 l -13.021,20.13 h -0.325 l -13.028,-20.13 v 28.063 H 199.916 V 81.135 z"
       id="path17"
       style="fill:#babdb6;fill-opacity:1"
       inkscape:connector-curvature="0" /><path
       d="M 273.071,81.135 H 292 v 37.903 h 26.612 v 18.714 H 273.07 V 81.135 z"
       id="path19"
       style="fill:#babdb6;fill-opacity:1"
       inkscape:connector-curvature="0" /></g><g
     id="g25"
     transform="translate(-48.3125,-81.135)"><path
       d="m 685.164,96.681 h -24.688 l 25.674,27.859 v 13.261 h -52.882 v -15.526 h 25.669 l -25.669,-27.86 v -13.28 h 51.896 v 15.546 l 0,0 z m -62.378,0 h -24.688 l 25.673,27.859 v 13.261 h -52.882 v -15.526 h 25.672 l -25.672,-27.86 v -13.28 h 51.897 v 15.546 z m -61.768,0.631 h -26.64 v 24.313 h 26.64 v 16.176 H 515.444 V 81.135 h 45.574 v 16.177 z"
       id="path27"
       style="fill:#babdb6;fill-opacity:1"
       inkscape:connector-curvature="0" /></g><path
     style="fill:#babdb6;fill-opacity:1"
     d="m 403.75,82.52125 27.09375,303.625 121.46875,33.71875 121.8125,-33.75 27.09375,-303.59375 -297.46875,0 z m 55.59375,59.46875 93.15625,0 0.125,0 93.25,0 -0.90625,10 -9,101.03125 -6.5,72.375 -0.5625,6.28125 -76.3125,21.15625 -0.0625,0.0312 -76.28125,-21.1875 -5.21875,-58.46875 17.25,0 20.125,0 2.65625,29.71875 41.46875,11.1875 0.1875,-0.0312 41.40625,-11.1875 4.34375,-48.3125 -45.96875,0 0,0.0312 -40.84375,0 -0.125,0 -0.75,-8.375 -1.6875,-18.875 -0.875,-10 44.28125,0 49.25,0 3.40625,-38.125 -52.53125,0 -0.125,0 -89.71875,0 -0.125,0 -0.75,-8.375 -1.6875,-18.875 -0.875,-10 z"
     id="polygon29"
     inkscape:connector-curvature="0" /><g
     id="g33"
     style="fill:#ffffff;fill-opacity:1"
     transform="translate(-48.3125,-81.135)" /></svg>